<svg id="Layer_1" data-name="Layer 1" xmlns="http://www.w3.org/2000/svg" viewBox="0 0 1200 650.87"><defs><style>.cls-1{fill:#9d4edd;}</style></defs><path class="cls-1" d="M1155.2,281H875.8c-23.95.74-43.2,19.83-44.26,42.68-1.13,24.35,18.69,46.07,44.26,46.91h230.32c-20.95,108-116.26,189.81-230.32,189.81-129.34,0-234.59-105.24-234.59-234.6V201.11c0-1.1,0-2.2-.12-3.28h.07C645.57,96.37,569.82,8,472.29.75,422.45-2.93,372.21,15.83,334.42,52.21q-6.94,6.69-13.15,14C290.62,29.28,246.52,4.44,196.73.75S96.63,15.83,58.86,52.21A192.32,192.32,0,0,0,.09,196.31H0v365H0v89.58H44.76c107,0,189.9-30.41,246.52-90.34,75.7-80.14,74.89-184.47,74.36-199.32V196.79c.2-5.3.19-10.55-.06-15.77a102.7,102.7,0,0,1,31-64.28C416,98,441.2,88.28,465.7,90.09c48.89,3.61,88.26,51.16,86,103.84l.54,0a42.27,42.27,0,0,0-.59,7.16V325.83q0,12.46.93,24.72C565.22,517.8,705.36,650,875.8,650c178.76,0,324.2-145.43,324.2-324.18A44.8,44.8,0,0,0,1155.2,281Zm-879.07,83.5c.1,3.51,2,80.16-50.63,135.18-31.79,33.25-78,53.16-137.7,59.41V196.33l1.72,0c-1-29,10.49-59.34,31.47-79.57C140.47,98,165.65,88.28,190.12,90.09c44.74,3.3,81.53,43.43,85.68,90.61a102.14,102.14,0,0,1,.29,13.23c0,.66,0,1.31,0,1.95V362.12C276.06,363.1,276.06,363.6,276.13,364.53Z"/><path class="cls-1" d="M861.8,87.35a44.78,44.78,0,0,0,14,2.23,235.19,235.19,0,0,1,173.52,76.71A44.79,44.79,0,1,0,1115.56,106,324.89,324.89,0,0,0,875.81,0a44.8,44.8,0,0,0-14,87.35Z"/></svg>