<svg id="Layer_1" data-name="Layer 1" xmlns="http://www.w3.org/2000/svg" viewBox="0 0 1200 150.42"><defs><style>.cls-1{fill:#e0aaff;}</style></defs><path class="cls-1" d="M382.65,92.33a40.39,40.39,0,0,0,18.78-14.87q6.75-10,6.75-25.62V48.71q0-15.65-6.65-25.63a40.23,40.23,0,0,0-18.78-15q-12.12-5-28.56-5H304.31V146.9h23.48V97.22h26.4c.62,0,1.21,0,1.82,0L392,146.9h28L380,93.31C380.91,93,381.8,92.68,382.65,92.33ZM371.8,74a29,29,0,0,1-14.48,3.42H327.79v-54h29.53A28.45,28.45,0,0,1,371.8,27a23.93,23.93,0,0,1,9.29,9.59,29.12,29.12,0,0,1,3.23,13.89,29.52,29.52,0,0,1-3.23,14.08A23.25,23.25,0,0,1,371.8,74Z"/><path class="cls-1" d="M478.6,4.11,428.52,146.9H452l13.88-40.29h64.71l14.32,40.29h24.26L517.53,4.11Zm-5.71,82.15,21.37-62h7.06l22,62Z"/><path class="cls-1" d="M669.42,8.9q-12.24-5.76-30-5.77H592.84V146.9h23.47V100.15h23.08q17.8,0,30-5.77A41.88,41.88,0,0,0,688,78.05q6.36-10.56,6.36-24.84V50.08q0-14.47-6.36-24.94A42.12,42.12,0,0,0,669.42,8.9ZM667.17,66a24.5,24.5,0,0,1-9.49,10q-6.16,3.63-15.55,3.62H616.31V23.67h25.82q9.39,0,15.55,3.52a23.91,23.91,0,0,1,9.49,9.88,31,31,0,0,1,3.32,14.57A30.64,30.64,0,0,1,667.17,66Z"/><polygon class="cls-1" points="815.04 65.14 743.26 65.14 743.26 4.11 719.78 4.11 719.78 146.9 743.26 146.9 743.26 86.07 815.04 86.07 815.04 146.9 838.52 146.9 838.52 4.11 815.04 4.11 815.04 65.14"/><rect class="cls-1" x="877.25" y="4.11" width="23.47" height="142.79"/><path class="cls-1" d="M1031.58,120.2q-11.73,8.51-28.95,8.51a50.65,50.65,0,0,1-21-4.11,41,41,0,0,1-15.16-11.54A50.76,50.76,0,0,1,957.35,96a68.46,68.46,0,0,1-3-20.64,70.43,70.43,0,0,1,3-21.22,50.44,50.44,0,0,1,8.9-16.92A40.5,40.5,0,0,1,981,25.82a48.22,48.22,0,0,1,20.44-4.11,51.58,51.58,0,0,1,20,3.72,36,36,0,0,1,14.67,11q5.76,7.34,7.33,18.29h23.67q-1.56-16.62-9.88-28.85a56.1,56.1,0,0,0-22.39-19.07Q1020.83,0,1001.46,0q-18.59,0-32.18,6.45a62,62,0,0,0-22.1,17A71.69,71.69,0,0,0,934.56,47a85.27,85.27,0,0,0-4.11,26v4.31a82.8,82.8,0,0,0,4,24.74A76.11,76.11,0,0,0,947,125.87a61.82,61.82,0,0,0,22.3,17.8q13.79,6.75,33.35,6.75,20.14,0,34.43-7.33a58.19,58.19,0,0,0,22.49-19.76,64,64,0,0,0,10.17-27.48h-23.86Q1043.31,111.69,1031.58,120.2Z"/><path class="cls-1" d="M1193.84,84.7a43.07,43.07,0,0,0-17.22-13.79q-11-5.19-26.11-6.36l-14.08-1.17q-11.36-1-16.83-6.56A17.74,17.74,0,0,1,1114.13,44a21.83,21.83,0,0,1,3.13-11.34,23.33,23.33,0,0,1,9.29-8.61q6.17-3.33,15.55-3.33,9.78,0,16,3.52a23.14,23.14,0,0,1,9.29,9.1,24.43,24.43,0,0,1,3,11.84h23.09q0-13.89-6.36-24a42.51,42.51,0,0,0-17.9-15.65Q1157.74,0,1142.1,0q-15.25,0-26.8,5.57a43.21,43.21,0,0,0-17.9,15.36Q1091,30.71,1091.05,44q0,17.42,11.73,28.07t31.5,12.23l14.27,1.37q14.09,1.17,21.13,6.35t7,13.4a21.47,21.47,0,0,1-3.62,12.13q-3.61,5.47-11.15,8.8t-19.07,3.33q-12.72,0-20.15-3.82T1112,116.19a23.92,23.92,0,0,1-3.33-11.93h-23.08a43.32,43.32,0,0,0,6.65,23.77q6.65,10.46,19.46,16.43t31.2,6q17.22,0,30-5.67t19.95-15.84a39.85,39.85,0,0,0,7.14-23.48Q1200,93.31,1193.84,84.7Z"/><path class="cls-1" d="M262.1,66H198.71a10.17,10.17,0,0,0,0,20.33H251A53.23,53.23,0,0,1,145.48,76.2V47.91q0-.37,0-.75h0c1-23-16.19-43.08-38.31-44.71A41,41,0,0,0,75.88,14.12a42.63,42.63,0,0,0-3,3.18A40.65,40.65,0,0,0,44.63,2.45,41,41,0,0,0,13.35,14.12,43.64,43.64,0,0,0,0,46.82H0v82.8H0V150H10.16c24.26,0,43.08-6.9,55.93-20.5C83.26,111.27,83.08,87.6,83,84.23V46.93c0-1.21,0-2.4,0-3.58a23.24,23.24,0,0,1,7-14.59,20.64,20.64,0,0,1,15.68-6c11.09.82,20,11.61,19.51,23.56h.12a9.69,9.69,0,0,0-.14,1.63V76.2c0,1.89.07,3.76.22,5.61A73.55,73.55,0,0,0,272.26,76.2,10.16,10.16,0,0,0,262.1,66ZM51.16,115.65C44,123.2,33.47,127.71,19.92,129.13V46.82h.39a24.35,24.35,0,0,1,7.14-18.06,20.67,20.67,0,0,1,15.68-6c10.16.75,18.5,9.85,19.45,20.55a25.12,25.12,0,0,1,.06,3c0,.15,0,.29,0,.44V84.44a4.78,4.78,0,0,0,0,.54C62.67,85.78,63.09,103.17,51.16,115.65Z"/><path class="cls-1" d="M195.53,22.09a10.14,10.14,0,0,0,3.18.51A53.43,53.43,0,0,1,238.08,40a10.16,10.16,0,0,0,16.83-10.9,10.3,10.3,0,0,0-1.81-2.78,73.7,73.7,0,0,0-54.39-24,10.16,10.16,0,0,0-3.18,19.81Z"/></svg>