<?xml version="1.0" encoding="utf-8"?>
<!-- Generator: Adobe Illustrator 24.3.0, SVG Export Plug-In . SVG Version: 6.00 Build 0)  -->
<svg version="1.1" id="Layer_1" xmlns="http://www.w3.org/2000/svg" xmlns:xlink="http://www.w3.org/1999/xlink" x="0px" y="0px"
	 viewBox="0 0 1920 8192" style="enable-background:new 0 0 1920 8192;" xml:space="preserve">
<style type="text/css">
	.st0{opacity:5.000000e-02;}
	.st1{fill:#FFFFFF;}
	.st2{fill:#F6F6F7;}
	.st3{opacity:0.1;}
	.st4{fill:none;}
	.st5{display:none;}
</style>
<g id="Layer_2_1_">
	<g id="Layer_1-2">
		<g id="Group_52" class="st0">
			<g id="Group_29">
				<g id="Group_8">
					<path id="Path_17" class="st1" d="M1957.7,5280.9c-6.8-8.1-13.9-16.1-21-24.1c-59.1-65.6-118-131.3-176.9-197.2l-10.1-11.2
						c-91.7-102.4-183.6-204.6-275.7-306.8c-4.6-5.1-9.2-10.2-13.8-15.2c-9.8-10.8-19.6-21.7-29.4-32.5
						c-116.7-127.7-257.9-229-416.7-308.7c-114.8-57.5-231.5-114.5-320.1-207.1c-96.9-100.2-167.9-213.6-173.4-353.3v-9.5
						c0-11.5,0.8-23.1,2.3-34.5c0.7-5.6,1.7-11.1,2.8-16.5c13.9-68.1,55.4-124.9,112.3-173.3c18.9-16,38.6-30.9,58.9-45.1
						c8.6-6,17.3-11.9,26-17.6c20.4-13.4,41.3-26.1,62.5-38.5c179.6-106.4,347.5-227.2,507-358.5c6.7-5.5,13.4-10.8,20.2-16.1
						c5.1-3.9,10.3-7.8,15.5-11.5c48.1-34.6,100.2-62.3,157.1-81c4.7-1.6,9.5-3.1,14.4-4.5c19.8-5.9,39.8-10.6,60.2-14.2
						c118.5-20.5,232.7-0.7,344.3,38c18.5,6.4,36.4,13.4,53.6,20.9L1957.7,5280.9z M2004.3,5961.3c-14.8,12.6-30.4,24.5-46.6,35.8
						c-32.1,22.3-67.3,42.4-106.6,61.1c-31.8,15.4-63.3,30.3-94.8,45c-21.3,10-42.6,20.1-64,30.3l-6.1,2.9
						c-6.6,3.2-13.2,6.3-19.8,9.5l-7.2,3.5c-75.9,37-151.5,76.6-222.3,122.5c-64.8,42.4-117.5,85.2-160.5,130.5
						c-4,4.2-7.9,8.5-11.8,12.8c-24.8,27.6-46.9,57.5-65.9,89.4c-45.7,76.5-68,148.5-68,220.9c0,47.2,9.9,94.7,29.3,140.8
						c20.5,47.5,41.7,90,65.5,128.7c15,25.2,30.7,50.1,46.4,74.7c25.8,41.3,52.3,83.6,76.8,126.7l12-9.5
						c-38.7-67.7-82-132.8-122.4-199.2c-24.9-41.3-45.7-83.4-64.4-127.3c-19.4-45.7-28.2-90.7-28.2-135
						c0-73.1,24.1-144.1,65.8-213.3c20.1-33.5,43.5-64.8,70.1-93.4c4-4.3,8-8.6,12.2-12.8c44.5-45.7,95.8-85.2,151.1-121.3
						c77.5-50.4,160.1-92.5,243.7-132.7l6.3-3c6.9-3.3,13.9-6.6,20.8-9.9l5-2.4c45.5-21.6,91.2-42.9,136.5-64.9
						c34.9-16.3,68.4-35.2,100.4-56.6c19.6-13.2,38.5-27.6,56.5-42.9L2004.3,5961.3z M1997.1,3064.7c-12.8-6.5-26-12.6-39.4-18.4
						c-15.8-6.8-32.1-13-48.8-18.8c-130.2-45.4-241.8-57.4-351.5-38.4c-20.8,3.6-41.3,8.5-61.5,14.5c-4.8,1.4-9.6,2.9-14.4,4.5
						c-53.2,17.5-104.3,43.1-153.2,77c-5,3.5-10,7-14.9,10.6c-10.2,7.5-20.3,15.4-30.4,23.6c-168.6,139-334,255.7-505.2,357.4
						c-32.3,18.9-60.7,36.8-86.1,54.5c-8.3,5.7-16.2,11.4-23.9,17.1c-13.9,10.4-27,20.7-39.2,31.2
						c-68.2,57.7-107.3,120.1-119.1,189.4c-0.9,5.4-1.7,10.9-2.3,16.4c-1.1,9.9-1.6,19.9-1.6,29.8v9.9
						c5.1,128,61.4,243.3,177.8,363.3c87.8,92.2,203.4,150,315.3,205.9l8.8,4.4c163.5,81.9,302.2,184.7,412.3,305.1l19.3,21.3
						l14.3,15.8c95.1,105.3,189.9,210.8,284.2,316.4l6.3,7l3.8,4.2l178,198.5c11.2,12.4,21.9,24.9,32,37.3L1997.1,3064.7z
						 M1724.4,5757.9c-36.6,48.4-84.3,91-150.3,134.7c-84.9,55.4-177.7,99.3-271.9,138.6l-0.6,0.2c4.8,2.7,9.7,5.3,14.6,7.9l0.4-0.2
						c44-18.6,87.6-38.3,130.2-59.6c104.6-52,178.2-101,238.1-158.4c18.6-17.1,35.5-36.1,50.4-56.5c3-4.1,5.9-8.3,8.6-12.4
						c33.7-51,50.7-107.2,50.7-167.8c0-5.1,0-10.2-0.4-15.4c-4.8-77.5-31.1-153.7-78.7-226.8c-37.4-57.1-77.7-113.2-118.9-168.1
						c-3.1,2.1-6.2,4.1-9.4,6.2l-3.1,2c41.3,54.9,81.3,110.6,118.9,168.2c43.9,67.7,71.4,140.9,76.1,219.1c0.3,5.1,0.3,9.9,0.3,14.6
						c0,58.7-16.8,112.1-48.3,159.9c0.6,0.4,1.2,0.8,1.8,1.1c-2.7,3.9-5.4,7.8-8.3,11.6L1724.4,5757.9z M1817.1,2255.5
						c3.3-4.6,6.6-9.2,10-13.7c38-51.5,81.8-98.3,130.6-139.7v-19.3c-54.9,44.9-104.1,97.1-147.5,156.6c-3.4,4.6-6.7,9.2-9.9,13.9
						c-14.5,20.7-28.3,42.2-41.4,64.5c-38.1,64.7-56.3,122.2-56.3,175.6c0,82.3,43.5,154.4,132.8,219.8
						c39.2,29.5,80.7,56.3,122.3,81.8v-17.6c-38.8-24-77-48.9-113.6-76.3c-87.8-64.4-126.6-132.8-126.6-207.8
						c0-52.7,19.4-108.3,54.2-167.9C1786,2301.2,1801.1,2277.8,1817.1,2255.5L1817.1,2255.5z M1659.2,6149.5
						c-75.9,37-151.5,76.6-222.3,122.5c-64.8,42.4-117.5,85.2-160.5,130.5c5.8,1.2,11.5,2.4,17.3,3.6
						c44.5-45.7,95.8-85.2,151.1-121.3c77.5-50.4,160.1-92.5,243.7-132.7l6.3-3c-9.5-1-19-2.1-28.5-3L1659.2,6149.5z M1957.7,5280.9
						c-6.8-8.1-13.9-16.1-21-24.1c-59.1-65.6-118-131.3-176.9-197.2l-10.1-11.2c-91.7-102.4-183.6-204.6-275.7-306.8
						c-4.6-5.1-9.2-10.2-13.8-15.2c-9.8-10.8-19.6-21.7-29.4-32.5c-116.7-127.7-257.9-229-416.7-308.7
						c-114.8-57.5-231.5-114.5-320.1-207.1c-96.9-100.2-167.9-213.6-173.4-353.3v-9.5c0-11.5,0.8-23.1,2.3-34.5
						c0.7-5.6,1.7-11.1,2.8-16.5c13.9-68.1,55.4-124.9,112.3-173.3c18.9-16,38.6-30.9,58.9-45.1c8.6-6,17.3-11.9,26-17.6
						c20.4-13.4,41.3-26.1,62.5-38.5c179.6-106.4,347.5-227.2,507-358.5c6.7-5.5,13.4-10.8,20.2-16.1c5.1-3.9,10.3-7.8,15.5-11.5
						c48.1-34.6,100.2-62.3,157.1-81c4.7-1.6,9.5-3.1,14.4-4.5c19.8-5.9,39.8-10.6,60.2-14.2c118.5-20.5,232.7-0.7,344.3,38
						c18.5,6.4,36.4,13.4,53.6,20.9L1957.7,5280.9z M7.9,6741.3c5.8,3.8,12,7,18.5,9.5c54.1,23.4,106.8,49,155.5,82.7
						c131.7,90,195,215.5,216.5,362.9c9.1,57.8,3.7,116.3,7.7,174.5c9.9,130.6,4.4,261.9,33.3,391.8
						c36.2,161.7,162.4,278,345.7,297.8c89.3,10.2,179.2,13.5,268.5-1.5c211.4-35.8,362.2-174.1,402.8-371.7
						c9.3-43.5,13.9-87.9,13.9-132.4c0-11.3-0.3-22.5-0.9-33.7c-0.1-2-0.2-4-0.4-6c-0.4-5.8-0.8-11.7-1.4-17.5
						c-0.2-1.9-0.4-3.9-0.6-5.8c-8.2-81.4-32.3-160.9-70.7-238.4c-9-17.9-18.3-35.6-28.1-53c-2.5-4.4-5-8.9-7.5-13.3
						c-38.7-67.7-82-132.8-122.4-199.2c-24.9-41.3-45.7-83.4-64.4-127.3c-19.4-45.7-28.2-90.7-28.2-135
						c0-73.1,24.1-144.1,65.8-213.3c20.1-33.5,43.5-64.8,70.1-93.4c4-4.3,8-8.6,12.2-12.8c44.5-45.7,95.8-85.2,151.1-121.3
						c77.5-50.4,160.1-92.5,243.7-132.7l6.3-3c6.9-3.3,13.9-6.6,20.8-9.9l5-2.4c45.5-21.6,91.2-42.9,136.5-64.9
						c34.9-16.3,68.4-35.2,100.4-56.6c19.6-13.2,38.5-27.6,56.5-42.9L1961.6,1836l-3.8,1.8c-36.1,17.3-71.1,36.6-105,57.8
						c-5.5,3.4-11.1,6.9-16.5,10.5c-49.3,31.8-96,66.9-140.9,103.7c-134.6,110.8-272.9,216.9-398.8,337.3
						c-51.2,48.3-100.2,99.5-142.3,155.5c-4.5,6.1-9.2,12.2-13.8,18.3c-3,3.9-6.1,7.9-9.2,11.7c-27.2,34-56.4,66.3-87.5,96.7
						c-3.7,3.6-7.3,7.2-11.1,10.7c-55,52.5-115.4,99.6-180.5,142.8c-133.9,90-259,189.1-372.7,302.2c-83,84.1-152.6,177.4-224.6,270
						c-61.5,79-136.1,142.3-234.1,179.2c-4.5,1.8-8.7,4.2-12.7,7 M-15.6,6715.3c0.1,0.2,0.2,0.5,0.4,0.7 M7.7,4042.4l0.2,0.1
						c5.3,2.6,10.9,4.6,16.7,6c101.3,24.5,181.8,81.6,256.1,147.1c113.7,101,235.9,189.4,370.2,261.7
						c56.9,30.7,115.6,58.1,175.6,82.3c53.9,21.5,107.5,44,159.6,69.4c70.9,34.5,138.8,74.4,200.4,124.1
						c92.4,74.9,175.6,160.5,248,254.9c47,61,94.6,121.4,140.9,182.6c3,4,6.1,8,9.1,12c41.3,54.9,81.3,110.6,118.9,168.2
						c43.9,67.7,71.4,140.9,76.1,219.1c0.3,5.1,0.3,9.9,0.3,14.6c0,58.7-16.8,112.1-48.3,159.9c-2.7,4.2-5.6,8.3-8.6,12.4
						c-14.2,19.4-30.3,37.5-48.1,53.8c-68,64.8-149.6,113.4-234.5,155.5c-46,22.9-92.9,43.9-140.3,63.8l-0.6,0.3
						c-5.6,2.4-11.2,4.7-16.8,7l-0.9,0.4c-93.4,38.6-188.6,73.3-282.5,110.7c-95.1,37.7-187.7,77.9-276.2,126.2
						c-72.1,39.5-147.4,56.3-230.9,41.7c-125.8-21.9-253.9-27.4-381.5-28.5c-32.2-0.7-63.3,7.3-94.4,7.3c-2.8,0-5.6,0.3-8.3,0.9
						 M7.8,3560.6c5.6-5.2,11.3-9.6,18.1-12.5c92.6-34.8,171.2-95.1,240.3-184l28.5-36.6c60.7-78.7,123.6-159.4,195-231.9
						c107.2-106.8,228.6-204.8,370.5-300.3c69.1-46,130.3-94.4,184.5-146.4c3.7-3.5,7.4-7.1,11-10.7c30.9-30.4,60-62.6,87-96.5
						c3.1-3.9,6.2-7.8,9.2-11.7c4.7-6.1,9.4-12.3,14-18.5c37-49,81.6-97.7,140.5-153.3c95.1-91.1,199.4-175.6,300.3-257.2
						c32.6-26.3,65.1-52.7,97.7-79.4c52.2-42.8,101.4-78.8,149.7-109.3c5.6-3.6,11.3-7.1,16.9-10.5c28.9-17.6,57.5-33.2,86.3-47.2
						c3.4-1.6,6.7-3.2,10.1-4.8l36.6,4111.7c-14.8,12.6-30.4,24.5-46.6,35.8c-32.1,22.3-67.3,42.4-106.6,61.1
						c-31.8,15.4-63.3,30.3-94.8,45c-21.3,10-42.6,20.1-64,30.3l-6.1,2.9c-6.6,3.2-13.2,6.3-19.8,9.5l-7.2,3.5
						c-75.9,37-151.5,76.6-222.3,122.5c-64.8,42.4-117.5,85.2-160.5,130.5c-4,4.2-7.9,8.5-11.8,12.8c-24.8,27.6-46.9,57.5-65.9,89.4
						c-45.7,76.5-68,148.5-68,220.9c0,47.2,9.9,94.7,29.3,140.8c20.5,47.5,41.7,90,65.5,128.7c15,25.2,30.7,50.1,46.4,74.7
						c25.8,41.3,52.3,83.6,76.8,126.7c2.5,4.4,5,8.9,7.5,13.3c9.3,16.7,18.2,33.5,26.6,50.5c41.1,82.3,64.7,166.4,70.8,250.5
						c0.1,1.9,0.3,3.8,0.4,5.8c0.4,6.2,0.7,12.4,0.9,18.5c0.1,2,0.1,4,0.2,5.9c0.1,4.6,0.2,9.1,0.2,13.7c0,43.5-4.5,86.9-13.5,129.5
						c-39.1,190.2-185.1,324.8-390.7,359.6c-76.8,13.2-160.6,13.6-264,1.8c-172.6-19-297-125.8-332.9-286.4
						c-19.8-88.2-23.4-179.6-26.7-268.1c-1.5-40.3-3.3-81.2-6.2-121.5c-1.5-22.7-1.8-45.4-1.8-68c0-35.1-0.4-71.3-6.2-107.5
						c-23.7-164.8-96.8-287-222.6-373.3c-43.2-29.6-91.8-55.6-158-83.7c-10.4-4.3-18.3-9-24.4-15 M7.9,6311.9
						c0.6-0.3,1.2-0.5,1.8-0.7c2.1-0.6,4.3-0.9,6.4-0.9c15.7,0,31.5-2.2,46.5-4.4c16.4-1.8,31.8-3.7,47.5-3.7
						c114.1,1.5,248,5.5,379.3,28.5c82,14.6,160.6,0.4,240.7-43.1c78.3-42.4,165.3-82.7,274.3-125.5c38.8-15.4,77.9-30.3,116.7-45.4
						c58.4-22.5,117.9-45.3,176.9-69.9l0.7-0.3c5.8-2.4,11.6-4.8,17.4-7.3l0.4-0.2c44-18.6,87.6-38.3,130.2-59.6
						c104.6-52,178.2-101,238.1-158.4c18.6-17.1,35.5-36.1,50.4-56.5c3-4.1,5.9-8.3,8.6-12.4c33.7-51,50.7-107.2,50.7-167.8
						c0-5.1,0-10.2-0.4-15.4c-4.8-77.5-31.1-153.7-78.7-226.8c-37.4-57.1-77.7-113.2-118.9-168.1c-3-4-6-8-9-12
						c-30.7-40.8-61.9-81-92.6-120.6l-49-63c-73-95.4-157-181.8-250.2-257.5c-31.4-25.2-64.4-48.2-98.7-69.1
						c-34.5-21-70.1-40-106-57.5c-52.8-25.7-106.6-48.2-159.2-69.1c-193.1-77.5-370.5-189.1-541.3-341.3
						c-67-59.3-150.7-123.3-262.3-150.3c-5.4-1.3-10.6-3.2-15.5-5.7c-1.7-0.9-3.3-1.9-4.9-3 M1997.1,3064.7
						c-12.8-6.5-26-12.6-39.4-18.4c-15.8-6.8-32.1-13-48.8-18.8c-130.2-45.4-241.8-57.4-351.5-38.4c-20.8,3.6-41.3,8.5-61.5,14.5
						c-4.8,1.4-9.6,2.9-14.4,4.5c-53.2,17.5-104.3,43.1-153.2,77c-5,3.5-10,7-14.9,10.6c-10.2,7.5-20.3,15.4-30.4,23.6
						c-168.6,139-334,255.7-505.2,357.4c-32.3,18.9-60.7,36.8-86.1,54.5c-8.3,5.7-16.2,11.4-23.9,17.1c-13.9,10.4-27,20.7-39.2,31.2
						c-68.2,57.7-107.3,120.1-119.1,189.4c-0.9,5.4-1.7,10.9-2.3,16.4c-1.1,9.9-1.6,19.9-1.6,29.8v9.9
						c5.1,128,61.4,243.3,177.8,363.3c87.8,92.2,203.4,150,315.3,205.9l8.8,4.4c163.5,81.9,302.2,184.7,412.3,305.1l19.3,21.3
						l14.3,15.8c95.1,105.3,189.9,210.8,284.2,316.4l6.3,7l3.8,4.2l178,198.5c11.2,12.4,21.9,24.9,32,37.3L1997.1,3064.7z
						 M1957.7,2082.8c-54.9,44.9-104.1,97.1-147.5,156.6c-3.4,4.6-6.7,9.2-9.9,13.9c-14.5,20.7-28.3,42.2-41.4,64.5
						c-38.1,64.7-56.3,122.2-56.3,175.6c0,82.3,43.5,154.4,132.8,219.8c39.2,29.5,80.7,56.3,122.3,81.8V2082.8z M1957.7,2777.5
						c-38.8-24-77-48.9-113.6-76.3c-87.8-64.4-126.6-132.8-126.6-207.8c0-52.7,19.4-108.3,54.2-167.9c14.3-24.4,29.4-47.7,45.3-70.1
						c3.3-4.6,6.6-9.2,10-13.7c38-51.5,81.8-98.3,130.6-139.7V2777.5z M1659.2,6149.5c-75.9,37-151.5,76.6-222.3,122.5
						c-64.8,42.4-117.5,85.2-160.5,130.5c5.8,1.2,11.5,2.4,17.3,3.6c44.5-45.7,95.8-85.2,151.1-121.3
						c77.5-50.4,160.1-92.5,243.7-132.7l6.3-3c-9.5-1-19-2.1-28.5-3L1659.2,6149.5z M1517.1,9312.1c0.7-5.1,6.6-11,12.4-16.8
						c2.9-3.7,6.2-6.6,8.8-9.5c45.5-51.8,86.3-97.2,124.5-138.1c4-4.3,7.9-8.5,11.9-12.7c19.1-20.2,37.5-39.4,55.7-57.7
						c70.4-71.3,144.8-137.6,227.4-205.7v-19.4c-82.8,68.1-163.2,138.8-238,214.5c-16.8,17.1-33.4,34.3-49.9,51.7
						c-4,4.3-8,8.5-12,12.8c-44.7,47.6-88.3,96.2-131.2,145.1c-8.8,11-24.5,21.2-24.5,36.6c0.1,5,1.5,9.9,4.1,14.2L1517.1,9312.1z"
						/>
				</g>
				<g id="Group_13">
					<g id="Group_9">
						<path id="Path_18" class="st1" d="M1141.1,915.4c-107.5,6.6-214,2.2-321.5-3.3c-108.7-4.4-218.1-9.9-325.2-34.4
							c-45.5-10.6-83.1-28.5-113-54c-3.9,3.2-7.8,6.3-11.7,9.4c32.1,28.1,72.5,47.9,121.4,59.3c105.7,24.1,211.1,30,327.8,34.7
							c108.3,5.5,214.8,9.9,323.4,3.3c87-5.9,164.8-17.5,235.8-35.5c1.7-5.6,3.4-11.1,5.1-16.7
							C1305,898.7,1224.1,909.8,1141.1,915.4z M1810.4,633.7c36.3-43.4,66.8-91.3,90.9-142.4
							C1873.7,540.5,1843.4,588.1,1810.4,633.7L1810.4,633.7z M241.1-11.8c1.3,4,1.9,8.2,1.8,12.3c-0.1,5.9-0.7,11.8-1.8,17.6
							c-4.8,29.6-4.8,58.9-4.8,87.4v54.1l-0.3,54.5c0,66.9,1.1,138.6,7.7,211.1c9.1,92.9,21.6,200.5,56.7,302.9
							c13.1,37.4,32.5,68.9,58,94.6c3.6,3.6,7.3,7.1,11.2,10.4c32.1,28.1,72.5,47.9,121.4,59.3c105.7,24.1,211.1,30,327.7,34.8
							c108.3,5.5,214.8,9.9,323.4,3.3c87-5.9,164.8-17.5,235.8-35.5c5.7-1.4,11.3-2.9,16.8-4.4c67.7-18.4,129.1-42.8,186.3-73.8
							c93.5-51,169.6-111.6,229.2-182.9c36.3-43.4,66.8-91.3,90.9-142.4c10-21.2,19-43.1,27.1-65.7c15.3-44.1,24.3-87.8,29.4-129
							c5.7-45.2,6.8-87.3,6.8-123.5c0-39.9-1.5-80.1-3.3-120.3l-0.7-23.1c-0.4-4.4-0.7-8.8-1.1-12.8c-0.8-5.6-1.3-11.2-1.5-16.8
							 M7.9,1431.4c2.5-10.3,4.7-20.7,6.8-30.9c0.4-1.9,0.8-3.7,1.1-5.6c2.9-15,5.8-30,9.9-44.7c7.4-25.6,11.4-52,11.7-78.6
							c0-0.6,0-1.2,0-1.8c0-37.3-7.9-74.1-23.4-109.5c-1.9-4.4-3.9-8.7-6.1-13 M7.9,1828.2c10.8-1.6,20.4-9.3,28.7-15.6
							c75.7-56.3,140.5-122.2,192.4-199.7c58.2-86.7,111.6-177.1,178.5-259c74.6-91.4,177-141.2,290.4-173.8
							c118.9-34,241.5-44.3,364-55.2c92.8-8.3,184.6-19.7,274-39.2c5.2-1.1,10.4-2.3,15.5-3.5c74.8-17.2,147.8-40.3,218.3-72.4
							c6.9-3.1,13.7-6.3,20.5-9.6c10.9-5.2,21.7-10.7,32.4-16.4c60.7-32.9,118.4-71,172.3-114.1c61.5-48.6,115.7-101.1,162.6-157.5
							v-24c-49.5,61.8-106.8,118.4-171.8,169.9c-54.5,43.2-111.6,81.2-170.1,112.7c-5.2,2.7-10.3,5.4-15.5,8.1
							c-7.1,3.6-14.2,7.1-21.4,10.5c-73.4,34.9-148.9,59.4-225,77.3c-5.2,1.2-10.4,2.4-15.6,3.6c-93.1,20.7-186.9,31.8-277.7,40
							l-10.6,1.1c-117.8,10.6-239.2,21.2-355.9,54.8c-135.7,38.8-230.5,95.5-298.1,178.5c-49,60.4-91.4,125.5-132.4,188.8
							c-15.4,23.8-31.1,47.9-46.8,71.3c-49,73.5-112.7,139.4-188.8,196.1c-8.9,6.8-14.9,10.8-20,12.2 M7.9,1185.6
							c9.6,27.1,14.5,55.6,14.5,84.3c-0.1,25.9-3.8,51.6-11,76.5c-1.3,4.6-2.4,9.2-3.5,13.8 M1944-11.8c-0.8,3.9-1.1,8-1.1,12
							c0,9.9,1.8,20.1,2.6,30.4c1.8,47.6,4.1,95.5,4.1,142.7c0,83-6.9,165.7-35.5,247.3c-60.4,170.5-177.4,294.5-340.2,383
							c-55.9,30.3-113.9,53.1-173.7,70c-5.7,1.6-11.3,3.2-17.1,4.7c-78,20.6-158.9,31.7-241.9,37.3c-107.5,6.6-214,2.2-321.5-3.3
							c-108.7-4.4-218.1-9.9-325.2-34.4c-45.5-10.6-83.1-28.5-113-54c-3.9-3.3-7.6-6.8-11.2-10.3c-24.4-24-42.8-54-55.4-90
							c-33.3-97.3-46.1-198.3-56-299.6c-6.6-69.5-7.7-139.4-7.7-209.6c0-36.2,0.4-72.4,0.4-108.7c0-28.2,0-56.7,4.8-85.2
							c1.1-6.5,1.7-13.1,1.8-19.8c0-4.2-0.4-8.3-1.3-12.4"/>
					</g>
					<g id="Group_12">
						<path id="Path_21" class="st1" d="M924.1,9276.6c-5.7-4-11.4-7.9-17.2-11.7c-27.3-18.3-55.3-35.5-81.9-54.5
							c-72.8-52-147.4-101-211.4-162.8c-90.7-88.1-153.3-193.5-195.4-309.8c-36.2-101.7-66.9-204.9-102.8-306.6
							C267.9,8299.4,150.3,8214.7,7.9,8204c-2.7-0.2-5.4-0.4-8.2-0.5c-5-0.3-10-0.5-15-0.5h-0.4v321.9c6.1,13.7,14.2,26,23.5,37.6
							c8.1,10.1,17,19.7,26.2,29.4c50.5,54.5,76.5,121.1,101,187.7c43.9,117.8,77.9,237.8,143.8,347.9
							c35.8,61.8,82,115.2,128.8,169.4c13.5,16.1,35.1,19.7,52.7,30.3h526.4C967.4,9308.4,946.1,9292,924.1,9276.6z M464.3,9312.2
							c-5.7-3-11.6-5.7-17.5-8.1c-11.4-5.1-21.2-9.5-27.8-16.8c-42.4-49.4-90.7-105-127.3-167.6c-49.8-83.4-82-174.9-113-263
							c-9.5-27.5-19.4-54.9-29.6-82.3c-26.7-73.1-53-138.3-103.9-192.8c-14.4-15.2-27.3-29.4-37.2-44.9c-3.2-5-6.1-10.1-8.6-15.5
							v-302.9h0.4c2.7,0.2,5.5,0.3,8.2,0.6c136.9,10.8,248.4,92.4,293.2,217.4c17.6,49,33.6,98.8,49.8,147.8
							c17.2,53.4,34.4,106.1,53,158.8c45.4,125.1,112.3,231.2,199,315.3c54.8,52.7,117.4,96.6,178.2,139l35.1,25.2
							c17.6,12.1,35.5,23.8,53.4,35.5l16.4,10.9c6,4,12,7.9,17.9,12c14.6,9.9,29.1,20.2,42.8,31.3L464.3,9312.2L464.3,9312.2z"/>
					</g>
				</g>
				<g id="Group_15">
					<path id="Path_23" class="st1" d="M1735.4,5764.7c-3.7-2.3-7.4-4.6-11-6.9c-36.6,48.4-84.3,91-150.3,134.7
						c-84.9,55.4-177.7,99.3-271.9,138.6l-0.6,0.2c4.8,2.7,9.7,5.3,14.6,7.9c0.7,0.4,1.5,0.8,2.2,1.2l0.4-0.2
						c91.4-38.4,180.5-81.1,263.7-135.4c59.3-39.1,112.7-83.4,154.4-139l0.2-0.2C1736.5,5765.4,1736,5765.1,1735.4,5764.7z
						 M7.9,6311.3l1.8-0.1c30.8-1.1,61.2-6.2,91.3-6.8c129.9-0.8,260.4,6.2,388.9,28.2c84.1,14.6,161.7,0.4,234.8-39.9
						c126.6-68.8,262-121.4,396.9-174.1c59.7-23.3,119.6-46.1,178.7-70.5l0.7-0.3c5.8-2.4,11.6-4.8,17.5-7.3l0.4-0.2
						c91.4-38.4,180.5-81.1,263.7-135.4c59.3-39.1,112.7-83.4,154.4-139l0.2-0.2c3.1-4.1,6-8.2,8.8-12.3c35.6-52,51-107.8,51-166
						c0-29.3-4-59.3-11-89.3c-15.4-68.7-46.4-129.8-87.4-187.6c-32.4-46.3-65.3-92.4-98.6-138.4c-3-4.1-5.9-8.1-8.9-12.2
						c-75.1-102.6-153.9-203.1-240-297.6c-72.1-79.4-152.9-149.9-245.7-207.2c-29.9-18.5-60.7-35.4-92.3-50.7
						c-4.8-2.3-9.6-4.6-14.5-6.9c-121.8-57.6-247.7-105-364.9-168.7c-102.8-55.3-194.3-121.9-281.3-196.5
						c-52-44.6-104.6-88.1-161-127.7c-54.2-37.6-114.8-61.1-178.6-76.7L8,4027 M8,4530.1c10.3,4.3,22.2,6,33.9,8.2
						c30.7,5.9,61.2,12,91.8,18.3c5.8,1.2,11.6,2.4,17.4,3.6c205.2,43.1,407.4,96,607.9,154.4c131,38.1,250.2,97.3,351.5,184.4
						c59.3,52,109.4,110.5,150,176.3c63.3,104.6,113.4,214,130.2,335.4c1.1,8.9,1.8,17.8,1.8,26.7c0,90-64,162.4-163.9,177.8
						c-81.6,13.2-162.8,3-243.6-3.6c-57.9-4.8-115.5-7.6-172.7-7.9H812c-11.9-0.1-23.9,0-35.8,0.1h-3c-34.3,0.5-68.6,1.9-102.6,4.3
						c-3.4,0.2-6.7,0.5-10.1,0.7c-12.3,0.9-24.7,2-37,3.2c-3,0.3-6.2,0.6-9.3,0.9c-112.8,11.7-224.2,35-333.5,72.8
						c-66.1,23.1-126.4,57.7-185,94c-5,3.1-10,6.2-15,9.3c-6.8,4.2-13.5,8.4-20.2,12.7c-17,10.8-36.2,19.5-52.5,31.9l-1.3,1
						 M7.7,4042.3l0.2,0.1c69.6,16.8,126.9,41.4,175.1,74.8c58.5,41,113.4,87.1,159.5,126.6c96.2,82.3,189.1,147.4,284.2,198.3
						c12.2,6.7,24.5,13.2,37,19.6c62.8,32.2,128.1,60.5,191.7,88.3c45.4,19.7,92.2,40,137.9,61.7c4.4,2.1,8.8,4.2,13.2,6.3
						c122.2,59.3,231.2,141.9,333.6,254.2c85.6,94.1,164.6,195.2,238.6,296.1c3,4.1,5.9,8.1,8.9,12.2
						c33.9,46.5,66.7,92.9,98.6,138.5c43.6,61.5,71.4,121.4,85.3,182.5c6.9,30,10.6,58.9,10.6,86c0,58.5-16,110.2-48.7,158.1
						c-2.7,3.9-5.4,7.8-8.3,11.6l-0.5,0.6c-36.6,48.4-84.3,91-150.3,134.7c-84.9,55.4-177.7,99.3-271.9,138.6l-0.6,0.2
						c-5.6,2.4-11.3,4.7-16.9,7l-0.9,0.4c-43.8,18-87.9,35.1-131.5,52l-36.2,13.9l-13.6,5.1c-128.7,50.5-261.9,102.4-385.2,169.7
						c-71.7,39.5-145.2,52-225,38c-117.4-19.7-245.5-29.3-391.4-28.5c-16.8,0.7-32.9,2.2-49.8,3.6c-14.1,1.5-28.7,3-43.4,3.5
						 M7.9,5853.5c2.1-2,4.3-4,6.6-5.8c9.7-7.9,21.1-14.3,33.1-21c7-4,14.3-8.1,20.9-12.4c9.4-5.9,18.8-11.7,28.2-17.5
						c4.9-3.1,9.9-6.1,14.9-9.1c55.9-34.1,112.8-66,174.2-87.5c117-40.6,241-65.8,374.2-76.1c3.1-0.2,6.3-0.5,9.5-0.7
						c12.9-0.9,25.9-1.7,39-2.4c2.9-0.1,5.7-0.3,8.6-0.4c13.4-0.6,27-1.1,40.6-1.4c20.5-0.5,0,0,0,0c26.8-0.6,53.9-0.6,81.4-0.1
						c47.1,0.9,95.3,3.4,144.6,7.5l35.8,2.9c68.8,6.2,140.1,12.1,211.5,0.4c105.4-16.1,176.3-93.6,176.3-192.4
						c0-9.5-0.7-19-1.8-28.5c-15-108.7-57-217.3-132.4-341.3c-41-66.6-92.6-126.9-152.9-179.9c-96.9-83.4-217.3-146.7-357.4-187.7
						c-215.6-62.6-412.8-112.9-599.2-152.3c-5.9-1.2-11.8-2.5-17.6-3.7c-34.1-7.1-67.8-13.9-101.2-20.3l-6.2-1.1
						c-12.5-2.3-21.9-4.1-28.9-8c-0.6-0.3-1.1-0.6-1.7-1"/>
				</g>
				
					<image style="overflow:visible;enable-background:new    ;" width="469" height="791" id="Rectangle_15" xlink:href="1D8163D9.png"  transform="matrix(1.0155 0 0 1.0155 -15.8752 8524.5596)">
				</image>
				<g id="Group_16">
					<path id="Path_24" class="st1" d="M7.9,1415.7c2.4-5,4.7-10.1,6.8-15.2c17.2-40.8,26.1-84.6,26-128.8
						c-0.1-24.9-2.6-49.8-7.7-74.3c-2.7-13.7-9.6-26.1-19-37.1c-1.9-2.2-4-4.4-6.1-6.5 M7.9,1176.7c5,7.1,8.6,15.1,10.5,23.6
						c4.7,23.5,7.2,47.4,7.3,71.3c0,35.7-6,71.1-17.8,104.7"/>
				</g>
				<path id="Path_25" class="st2" d="M1255.2,7508.7c-7.8-63.6-28.6-120.4-59.6-172c-4.1,2.8-8.2,5.5-12.5,8.1
					c31.3,52.3,49.9,107.1,57,166.1c1.9,15.1,2.8,30.2,2.9,45.4h15C1258,7540.4,1257,7524.5,1255.2,7508.7z M1255.2,7508.7
					c-7.8-63.6-28.6-120.4-59.6-172c-2.6-4.3-5.3-8.6-8-12.9c-35.7-55.6-83.1-105-138.1-150.2c-31.1-25.6-64-49-98-71.7
					c-11.1-7.1-23-13.2-35.3-17.9c-5.7-2.2-11.5-4.2-17.4-5.8c-32.5-9.3-66.6-10.2-100.6-4.8c-50.1,8.1-75.3,49-96.2,87.1
					c-48.7,92.9-64.8,193.2-68,294.9c3.3,91.4,16.1,179.2,75.7,256c23.3,30.3,51.9,56,84.5,76c1.2,0.7,2.4,1.4,3.5,2.1
					c16,9.5,32.8,17.6,50.2,24.1c3.9,1.5,7.8,2.9,11.8,4.2c81.7,27.4,168.7,21.1,232.3-5.1c2.5-1,5-2.1,7.4-3.2
					c10.2-4.5,20-9.8,29.4-15.8c3.8-2.5,7.6-5,11.2-7.6c2-1.4,4.1-2.9,6-4.3c79.6-58.4,111.9-135.9,111.9-225.5
					C1258,7540.3,1257,7524.5,1255.2,7508.7z M1120.9,7780.8c-8.6,5.5-17.5,10.4-26.8,14.6c-1.8,0.8-3.6,1.6-5.5,2.4
					c-61.1,26-146.9,32.8-227.5,4.8c-3.2-1.1-6.4-2.3-9.6-3.5c-51.4-19.6-96.4-53.1-130.1-96.6c-58.5-76.1-69.5-164.3-72.4-248
					c3.7-116.3,24.9-208.2,66.2-287.2c20.5-37.7,42.8-72.1,85.6-79.4c37.5-5.8,72-3.2,103.2,7.5c6,2.1,11.9,4.5,17.7,7.2
					c7.5,3.5,14.8,7.5,21.8,12c33.4,21.8,65.6,45.2,96.6,70.2c57.8,47.7,102.6,96.2,135.1,147c2.7,4.3,5.4,8.6,8,12.9
					c31.3,52.3,49.9,107.1,57,166.1c1.9,15.1,2.8,30.2,2.9,45.4C1243.1,7654.3,1202.9,7727.8,1120.9,7780.8L1120.9,7780.8z"/>
				
					<image style="overflow:visible;enable-background:new    ;" width="225" height="859" id="Rectangle_26" xlink:href="1D8163C0.png"  transform="matrix(1.0155 0 0 1.0155 -15.8752 7029.7231)">
				</image>
				<g id="Group_17">
					<path id="Path_26" class="st1" d="M1554.5,7049c-4.3,2.6-8.6,5.3-12.8,8c2,4.6,4,9.2,6,13.9c32.6,75.8,61.9,152.7,75.5,233.6
						c4.4-4.1,8.8-8.1,13.3-12.1c-14.7-80-44-155.9-75.9-229.4C1558.6,7058.3,1556.6,7053.6,1554.5,7049z M1957.7,6644.8
						c-15.9-36.7-35.7-71.6-59.1-104.1c-45-61.8-116.7-88.5-192.8-69.1c-138.3,34.8-250.6,171.9-250.6,305.1
						c2.6,81.6,31.1,156.9,64.4,230.5c7.4,16.6,14.7,33.2,22,49.8c2,4.6,4,9.2,6,13.9c32.6,75.8,61.9,152.7,75.5,233.6
						c0.2,1.1,0.4,2.2,0.5,3.3c0.8,4.9,1.5,9.8,2.2,14.7c0.2,1,0.3,2.1,0.4,3.1l0.1,0.9c8.4,61.8,12.7,124.2,12.8,186.6
						c0,142.6-24.9,283.1-88.1,417.7c-82.7,174.1-234.9,272.2-426.9,320.5c-90.7,22.7-181.8,40.9-272.2,68
						c-136.8,41-192.8,141.6-192.8,248.8c0.2,27.5,3.6,54.9,10.3,81.5c52.7,215.1,241.4,341.3,452.9,368.4
						c61.9,8.1,119.2,0.5,173.1-17.3c7.4-2.5,14.9-5.1,22.2-8c46.7-18.1,90.9-43.4,133.2-72c61.9-41.7,122-85.5,181.4-130.2
						c5.3-4,10.5-7.9,15.8-11.9c103.5-78.3,205-159,309.6-236.3v-18.6c-65.9,48.4-131.1,98.6-194.4,147.5
						c-37.2,28.7-74.9,57.7-113,86.6c-5.3,4.1-10.7,8.1-16.1,12.2c-62.7,47.4-126.6,94.2-191.7,138.3c-39.6,26.7-77,47.7-113.2,63.4
						c-7.4,3.2-14.8,6.2-22.1,8.9c-62.5,23.5-121.9,30.6-183,22.8c-224.6-28.5-393.2-165.7-440.1-357.4c-6.5-25.5-9.8-51.6-9.9-77.9
						c0-67.3,23.8-187,182.2-234.5c59.3-17.6,120.3-31.8,179.2-45.7c30.7-6.9,61.4-14.2,92.2-21.9
						c214.8-54.1,357.8-161.7,436.8-328.5c60.4-128.8,89.6-267.8,89.6-424.3c0-59.6-4.4-122.9-12.8-188.8c-0.5-3.8-1-7.6-1.6-11.4
						c-0.2-1-0.3-2-0.5-3c-0.7-4.8-1.5-9.5-2.4-14.3c-0.2-1.1-0.4-2.2-0.6-3.3c-14.7-80-44-155.9-75.9-229.4c-2-4.6-4-9.2-6-13.8
						c-7.1-16.1-14.2-32.2-21.3-48.1c-31.1-68.8-60.4-144.1-62.9-224.6c0-126.9,107.2-257.2,239.2-290.4
						c69.1-17.6,135.4,6.2,177.1,63.6c29.2,40.3,53.1,86,71.1,136c0.9,2.6,1.9,5.2,2.8,7.8"/>
				</g>
				<g id="Group_18">
					<path id="Path_27" class="st1" d="M7.9,5850.4c2.2-0.9,4.4-1.8,6.6-2.7c30.8-13.1,58.7-30.8,86.4-48.9l14.3-9.4
						c7.8-5.1,15.7-10.2,23.5-15.1c124-75.7,261.5-115.2,406.1-134.6c40.1-5.6,80.2-10.7,120.4-14.5l8.8-0.8
						c12.3-1.1,24.6-2,36.9-2.9l8-0.5c12.9-0.8,25.8-1.4,38.7-1.9c19.4-0.7,0,0,0,0c25.8-0.9,51.7-1.1,77.6-0.3l3.9,0.2
						c88.3,3.8,176.3,13.4,265.3,18.1c94,3.7,186.6,3.7,258.6-71.7c33.7-35.5,47.2-75.7,47.2-117.1c0-7.3-0.4-14.6-1.1-21.9
						c-19.7-177.4-98.8-332.1-218-470c-145.2-168.6-348.3-242.5-562.3-297.4c-153.8-39.3-307.2-80.7-462.6-114
						c-5.9-1.3-11.8-2.5-17.6-3.8c-46.2-9.7-92.5-18.6-139-26.7l-1.7-0.3 M7.9,4529.5c42.8,7.3,85.5,15.4,128.2,24.4
						c5.8,1.2,11.6,2.4,17.4,3.7c126.6,26.9,252.3,59.4,375.2,91.2l96.6,24.9c201.6,51.6,408.2,122.5,554.6,292.6
						c125.8,145.2,196.1,296.3,214.3,461.6c0.8,6.8,1.1,13.6,1.1,20.5l0,0c0,40.3-14.3,76.5-43.2,106.8
						c-65.8,68.8-150.7,71-246.9,66.6c-41-1.8-82-5.1-122.6-8.1c-48.3-3.6-97.7-7.7-146.7-9.5c-8-0.3-15.9-0.5-23.9-0.6h-0.1
						c-12-0.2-23.9-0.1-35.8,0.1h-3c-32.9,0.7-65.5,2.7-97.7,5.5c-3.2,0.3-6.3,0.6-9.5,0.9c-11.8,1.1-23.6,2.3-35.2,3.6
						c-3,0.3-6,0.7-9,1c-26.8,3-53.3,6.4-79.2,9.9c-162.8,21.9-297.4,66.9-411.5,136.8c-10.8,6.5-20.9,13.3-31.3,20.2l-0.5,0.3
						c-4.7,3-9.4,6.1-14.1,9.1c-24.6,15.8-50,31.4-77.2,43l-1.3,0.5"/>
				</g>
				<g id="Group_20">
					<path id="Path_29" class="st1" d="M1367.8,715.3c-138.6,37.7-291.9,34-468.6-11.3c-121.2-31.5-212-86.7-273.9-167.2
						c-3.4-4.4-6.7-8.9-9.9-13.5c-2.5,4.8-5.1,9.7-7.8,14.6c3.2,4.4,6.6,8.8,10,13c65,81.5,158.4,136.7,277.9,167.7
						c157.3,40.2,317.9,54.1,476.3,11.3c25.6-6.8,50.9-14.9,75.7-24.2c2.9-6.6,5.8-13.1,8.7-19.6
						C1427.5,697.6,1397.9,707.4,1367.8,715.3z M1367.8,715.3c-138.6,37.7-291.9,34-468.6-11.3c-121.2-31.5-212-86.7-273.9-167.2
						c-3.4-4.4-6.7-8.9-9.9-13.5c-2.5,4.8-5.1,9.7-7.8,14.6c3.2,4.4,6.6,8.8,10,13c65,81.5,158.4,136.7,277.9,167.7
						c157.3,40.2,317.9,54.1,476.3,11.3c25.6-6.8,50.9-14.9,75.7-24.2c2.9-6.6,5.8-13.1,8.7-19.6
						C1427.5,697.6,1397.9,707.4,1367.8,715.3z M496.8-6.4c0,129.5,1.1,258.3,35.8,384.9c16.5,61,41.5,114.2,75,159.4
						c3.2,4.4,6.6,8.8,10,13c65,81.5,158.4,136.7,277.9,167.7c157.3,40.2,317.9,54.1,476.3,11.3c25.6-6.8,50.9-14.9,75.7-24.2
						c6.8-2.6,13.5-5.3,20.2-8c157.6-65.5,265-180.4,297-357c5-28.4,7.4-57.1,7.3-86l0,0c0-57.8-8.8-115.6-20.1-173
						c-6.1-31-10.8-62.1-15.4-93.5 M1443.3-11.8c0.5,7.4,3.4,15,5.7,22.6c20.5,64.7,40.3,129.5,49.8,196.1
						c2.6,18.3,4.4,36.2,4.4,54.5c0,13.8-1.1,27.7-3.3,41.3c-20.1,122.2-117.8,201.9-251.7,206.3
						c-219.1,6.9-383.4-121.4-419.6-324.8c-6.2-38.8-6.6-77.9-6.6-117.1V49.2c0-12.1,0-23.8-0.4-35.5c-0.3-8.7-0.3-17.4-2-25.5
						 M1721.4-11.8c4.7,32,9.5,64.6,16,96.5c9.1,46.8,19.7,109,19.7,170.1l0,0c0.2,28-2.2,55.9-7,83.4
						c-28.4,157.5-120.2,271.2-273,339.2c-6.8,3-13.7,5.9-20.7,8.8c-28.9,11.6-58.4,21.3-88.5,29.2c-138.6,37.7-291.9,34-468.6-11.3
						c-121.2-31.5-212-86.7-273.9-167.2c-3.4-4.4-6.7-8.9-9.9-13.5c-30.2-42.9-52.9-92.5-68-148.9
						c-32.9-119.6-35.5-238.1-35.5-380.8 M804-12.8c0.1,0.3,0.2,0.6,0.3,0.9c1.7,5.5,2,12.3,2.4,21.1v5.1c0.4,11.3,0.4,23,0.4,34.8
						v17.9c0,40.6,0.3,80.1,6.9,119.6c37.7,212.2,208.2,344.6,434.6,337.3c140.5-4.8,245.1-90.4,265.9-218.8
						c2.6-14.5,3.8-29.2,3.7-43.9c-0.1-19-1.6-37.9-4.4-56.7c-9.5-66.6-28.5-129.1-50.5-198.3l-1.1-4.1c-1.8-5.2-3.4-10.2-3.9-14.2"
						/>
				</g>
				<g id="Group_22">
					<path id="Path_31" class="st1" d="M804-12.8c0,0.3,0,0.6,0,0.9c0.1,10.5,0.1,21,0.1,31.4v27.8c0,58.5,0.7,117.1,13.9,175.6
						c48.3,216.2,298.8,355.2,521.6,287.9c106.1-32.9,177.8-124,181.4-229.7c0-4.4,0.4-8.8,0.4-13.2l0,0
						c0-89.3-27.8-173.4-53.8-258.3c-2.2-7.1-4.2-14.2-6.1-21.4 M1446.1-11.8c2.3,8.6,4.7,17.2,7.4,25.9l3.6,12.1
						c24.2,78.3,49.4,159.1,49.4,241.8c0,4.1-0.4,8.4-0.4,12.8c-3.3,99.9-70.6,184.7-170.9,215.8c-105.7,31.8-223.5,16.8-323.4-41.3
						c-92.5-54.1-158-140.1-179.2-235.6c-12.4-56.3-13.5-113.7-13.5-172.3V19.5c0-10.6,0-20.9-0.2-31.4"/>
				</g>
				<g id="Group_24">
					<path id="Path_33" class="st1" d="M813.6,5074.6c-38.8-66.9-202.7-119.3-274-27.8c-13.2,16.1-20.1,33.6-20.9,53.8
						c4.1,43.5,36.6,70.6,71.4,89.3c65.1,36.2,159.4,19,211.4-31.8c15.7-15.4,23.4-30.7,23.4-46.8
						C825,5099.5,821,5087.4,813.6,5074.6z M791.3,5147c-49.8,48.7-136.5,61.8-193.9,29.6c-40.6-21.9-60.7-46.5-63.6-77.5
						c0.7-14.6,6.2-28.9,17.5-43.1c32.6-41.7,84.2-45,112-42.8c57.1,3.7,117.4,34.4,137.6,68.8c5.8,11,9.1,20.5,9.1,29.3
						C810,5123.3,803.8,5135.3,791.3,5147L791.3,5147z"/>
				</g>
				<g id="Group_25">
					<path id="Path_34" class="st1" d="M7.9,2716.1c43.5-34.2,71.8-78.7,90.6-129c7.3-20.1,11-39.2,11-57.1
						c0-54.5-34.1-96.9-98.1-121.4c-1.2-0.5-2.4-0.9-3.5-1.4 M5.9,2422.5l2,0.8c40.2,16,86.5,47,86.5,106.8l0,0
						c0,16.1-3.3,33.7-9.9,51.9c-17.9,47.6-43.3,85.5-76.7,114.6"/>
				</g>
				<g id="Group_27">
					<path id="Path_36" class="st1" d="M1957.7,4215.9l-6.9-3.3c-4.8-2.3-9.7-4.6-14.6-6.9c-5.2-2.4-10.4-4.8-15.7-7.2
						c-40.6-18.7-81.2-32.6-123.3-4.4c-38.4,25.6-49.8,62.6-49.8,102.4c0,4.4,0,9.1,0.4,13.6c5.1,81.2,35.8,155.8,78.3,226.1
						c4.8,8.2,9.8,16.3,14.9,24.3c2.8,4.4,5.6,8.7,8.5,13c31.8,47.7,68.3,91.8,108.1,133.3L1957.7,4215.9z M1957.7,4685
						c-35.1-37.7-68.6-78.8-98.3-123.6c-2.9-4.4-5.7-8.8-8.6-13.2c-4.1-6.4-8-12.8-11.9-19.3c-47.5-79.4-71.7-148.9-76.1-219.9
						c-0.4-4-0.4-8-0.4-12.4c0-41.6,13.6-70.2,43.2-90c32.9-21.9,64.7-14.6,108.7,5.5c7,3.2,14,6.4,21.1,9.7
						c4.9,2.3,9.8,4.7,14.7,7.1c2.5,1.2,5.1,2.5,7.5,3.7L1957.7,4685z"/>
				</g>
				<g id="Group_28">
					<path id="Path_37" class="st1" d="M1957.7,7389.9c-8.2,4.4-16.2,9.1-24,14c-2.4,3.6-4.7,7.3-6.9,11.1
						c-46.8,79.7-65.5,166.5-80.8,253.9c-4,22.7-7.7,45.5-11.2,68.3c4.4,3.3,9,6.4,13.7,9.3c3.7-24.9,7.8-49.8,12.1-74.6
						c14.6-82.7,32.6-170.5,79-249.5c5.2-9.1,11.3-17.6,18.1-25.5L1957.7,7389.9z M1957.7,7375.3c-9,8.6-17.1,18.2-24,28.6
						c-2.4,3.6-4.7,7.3-6.9,11.1c-46.8,79.7-65.5,166.5-80.8,253.9c-4,22.7-7.7,45.5-11.2,68.3c-0.9,5.6-1.7,11.1-2.5,16.7
						c-12.3,83.3-21.3,167.1-26.9,251.2c-0.4,4.1-0.4,8.4-0.4,12.1c0,16.5,1.9,32.6,4.6,48.6c0.8,4.9,1.7,9.9,2.7,14.8
						c0.6,3.2,1.2,6.5,1.9,9.7c8.4,49,54.5,78.3,106.5,68c12.5-2.4,24.9-5.5,37.1-9.2L1957.7,7375.3z M1957.7,8133.4
						c-13.1,4.2-26.5,7.6-40.1,10.3c-22.3,4.4-43.9,0.4-60.7-11c-14.9-10.6-25.1-26.6-28.2-44.6c-0.7-4-1.5-7.9-2.1-11.7
						c-0.9-5-1.8-9.9-2.5-14.8c-2.4-15.2-4.1-29.7-4.1-44.5c0-3.7,0-7.3,0.3-11c5.5-81.6,14.1-162.8,25.8-243.7
						c0.8-5.3,1.6-10.6,2.4-16c3.7-24.9,7.8-49.8,12.1-74.6c14.6-82.7,32.6-170.5,79-249.5c5.2-9.1,11.3-17.6,18.1-25.5
						L1957.7,8133.4z"/>
				</g>
			</g>
			<g id="Group_51" class="st3">
				<g id="Group_30">
					<path id="Path_38" class="st4" d="M1299.4,6030.1c-36.9-20.7-71.9-44.8-104.6-71.7c-40.2-33.7-77.5-71-114.1-107.5
						c-22.7-22.7-45.7-45.4-69.5-67.7c-83.8-78.4-181.9-131.3-300.3-161.6l-2.5-0.6l-5.3-1.3c-12.3-3.2-24.7-6.3-37.2-9.4
						c-11.8,1.1-23.6,2.3-35.2,3.6c12.9,3,25.8,6.2,38.7,9.5l4.6,1.2c44.5,11.5,88.7,24.7,131.6,41.2
						c63.6,23.4,120.7,58.9,170.4,104.6c35.5,32.5,69.9,65.8,104.3,99.5c20.5,19.8,40.9,39.9,61.4,59.3
						c42.6,41.3,89.9,77.5,140.8,108c0.7,0.4,1.5,0.9,2.2,1.3c5.7-2.3,11.3-4.7,16.9-7C1300.9,6031,1300.1,6030.6,1299.4,6030.1z
						 M1456.3,686c-3,6.5-5.9,13.1-8.7,19.6c-24.8,56.2-46.3,113.8-64.6,172.4c-1.7,5.6-3.4,11.1-5.1,16.7
						c5.7-1.4,11.3-2.9,16.8-4.4c1.7-5.6,3.5-11.3,5.3-16.9c19.2-59.9,41.8-118.6,67.8-175.8c2.6-5.8,5.3-11.7,8-17.5
						c0.4-1,0.9-1.9,1.3-2.9C1470.3,680.3,1463.4,683.2,1456.3,686z M1957.7,6166.6v0.6c8.6,1.2,17.1,2.5,25.7,3.7
						C1974.9,6169.5,1966.3,6168,1957.7,6166.6z M1957.7,1926.6v15.6 M1636.4,7292.3c-4.5,4-8.9,8-13.3,12.1
						c-25.5,23.8-49.4,49.3-71.7,76.2c-30,36-57.7,73.3-84.4,111.1c-4.5,6.4-9,12.7-13.4,19.1c-21.1,30.2-41.7,60.6-62.8,90.8
						c-65.5,93.6-151.3,150.4-244.7,180.1c-2,1.5-4,2.9-6,4.3c-3.6,2.6-7.4,5.1-11.2,7.6c-9.4,6-19.2,11.3-29.4,15.8
						c107.3-22.7,219.1-78.6,303.4-199.1l28.2-41c7.9-11.4,15.8-22.8,23.8-34.2c4.7-6.7,9.4-13.4,14.1-20.1
						c29.8-42.4,60.5-84.7,93.8-124.9c19.7-23.7,40.8-46.4,63.1-67.7c4.4-4.2,8.9-8.4,13.5-12.6c89.9-81.9,196.3-140.5,318.3-175.2
						V7119C1835.5,7153.1,1728.1,7210.4,1636.4,7292.3z M1957.7,7372.7c-56.9,29.8-110.1,71.1-146.1,134.9
						c-19.7,33.6-31.5,63.3-38.1,93.7c-2.9,12.1-4.3,24.5-4.4,36.9c0,47.8,22.2,87.9,63.1,115.7c4.4,3,9,5.8,13.9,8.5
						c7.5,4.2,15.3,7.9,23.2,11.2c28.8,11.9,58.4,21,88.3,28.4v-15.4c-28.2-7-55.9-16-82.9-26.9c-9.1-3.7-17.9-8.1-26.4-13.2
						c-4.7-2.9-9.3-5.9-13.7-9.3c-32.8-24.7-50.3-58.6-50.3-99c0-11.3,1.2-22.6,3.7-33.6c6.6-31.8,19.7-61.1,36.6-89.3
						c27.1-48.2,64.8-83.6,109-111.4c7.8-4.9,15.8-9.6,24-14L1957.7,7372.7z M1957.7,5863.2c-48.7-23.1-96.9-47.2-144.6-72.3
						c-23.1-11.8-45.4-24.2-67-37.4l-2-1.2c-3.6-2.2-7.2-4.5-10.8-6.7c-0.6-0.4-1.2-0.8-1.8-1.1c-96-60.9-175.6-137.5-228.2-239.7
						c-31.8-61.4-51.6-109.7-51.6-153.3c0-56.3,33.6-104.2,120-160.6l12.8-8.4l3.1-2c3.1-2,6.2-4.1,9.4-6.2l3.1-2
						c50.2-33.4,99.4-68,147.7-103.7c4.1-3,8.1-6,12.1-9c63.6-47.5,125.2-97.1,185-148.9c4.4-3.8,8.7-7.6,13-11.4L1957.7,5863.2z
						 M1957.7,4879.2c-7.5,6.7-15,13.3-22.5,19.8c-58.8,51.2-120.3,100.7-185.5,149.3c-4,3-8,6-12.1,9
						c-46.8,34.6-95.5,68.7-146.5,102.8l-3.3,2.2c-3.1,2-6.1,4.1-9.2,6.1l-3.3,2.2c-4.1,2.7-8.1,5.3-12.1,8
						c-88.9,57.8-126.2,109.8-126.2,173c-0.4,47.2,21.2,98.4,52.7,159.9c49.5,96.3,126.3,177,233.2,245.4c0.5,0.4,1,0.7,1.6,1
						c3.6,2.3,7.3,4.6,11,6.9c0.6,0.4,1.1,0.7,1.7,1c21.7,13.3,44.5,26.2,68.6,38.6c53.4,27.6,103.8,52.6,152,75.4L1957.7,4879.2z
						 M7.8,5423.5L7.8,5423.5l0.1,0.1c3.4,2,7.1,3.7,10.8,5.1c127.7,46.1,252.8,96.2,384.1,132.4c70.1,19.3,140.8,35.2,211.3,51.9
						l7.6,1.8c12.8,3,25.5,6.1,38.2,9.1l5.2,1.3c11.4,2.8,22.9,5.7,34.3,8.6c116.3,28.9,216.2,80.5,301.4,160.2
						c62.2,58.2,119.3,121.1,184.4,175.9c30.2,25,62.4,47.6,96.3,67.4l2.2,1.3c4.7,2.7,9.5,5.5,14.3,8.1l2.2,1.2
						c21.7,11.9,43.9,22.6,66.6,32.2c31.9,13.5,64.7,25,98,34.4l0,0c61.8,17.5,126.2,28.5,192.9,34.6l1.3,0.1
						c9.8,0.9,19.6,1.7,29.4,2.6c46.5,4,93,8,139.2,12.8c43.5,4.6,86.7,9.9,129.7,16.9v-14.4c8.6,1.2,17.1,2.5,25.7,3.7
						c-8.5-1.5-17.1-3-25.7-4.3c-41.3-6.7-83.1-11.9-124.8-16.3c-39.2-4.2-78.4-7.8-117.1-11.2l-15.8-1.4l-13.8-1.2l-26.8-2.4
						c-58.7-5.3-113.8-14.4-165.3-27.4c-49.5-12.3-97.8-29.2-144.2-50.6c-10.6-4.9-21.1-10.1-31.4-15.5c-0.8-0.4-1.5-0.8-2.2-1.2
						c-4.9-2.6-9.8-5.2-14.6-7.9c-0.8-0.4-1.6-0.9-2.3-1.3c-36.9-20.7-71.9-44.8-104.6-71.7c-40.2-33.7-77.5-71-114.1-107.5
						c-22.7-22.7-45.7-45.4-69.5-67.7c-83.8-78.4-181.9-131.3-300.3-161.6l-2.5-0.6l-5.3-1.3c-12.3-3.2-24.7-6.3-37.2-9.4l-5.6-1.4
						c-25.6-6.3-51.5-12.4-77.3-18.5c-57.8-13.5-117.8-27.4-176.3-43.9c-99.5-27.1-197.5-63.7-292.6-98.8c-30-11-60-21.9-90.4-32.9
						c-3.6-1.3-6.9-3-10.1-5.1c-2.1-1.4-4-3-5.8-4.7 M7.8,4723.6c12.9-24.9,33.4-45.6,55.1-67.2c11.7-12.1,23.8-24.5,34.4-37.3
						c16.9-19.7,34.5-39.6,53.5-58.9l2.6-2.6c3.3-3.3,6.7-6.7,10-9.9c0.9-0.9,1.8-1.8,2.7-2.7c22-21.1,45.9-41.1,72.3-58.6
						c95.8-64,204.9-75.4,342.7-35.8c95.5,27.8,186.9,66.9,276.2,104.6c25.2,11,50.9,21.9,76.8,32.5c16.9,6.9,34.1,14,51.6,21.1
						l7.2,2.9c33.7,13.6,68.4,27.3,103.9,40.4l8.1,3c94.1,34.5,194.3,65,298.7,80.7c16.5,2.5,32.9,4.1,49.4,5
						c6.9,0.4,13.8,0.6,20.6,0.7c119.2,1.4,234.2-39.2,323.7-115.8c18.7-16,36-33.6,51.9-52.4c3.4-4,6.7-8,9.8-12
						c58.2-74,89.9-162.9,90.4-257.5v-45c0-9.6,0-19.6,0.3-30c0.2-5.4,0.4-10.8,0.7-16.2c0.8-15.5,2.5-31,5.2-46.2
						c0.5-2.9,1-5.8,1.6-8.6v-47.2c-8,16.9-13.6,34.8-16.6,53.2c-2.3,13.9-4,27.9-4.8,42c-0.4,5.4-0.6,10.7-0.8,16.1
						c-0.5,12.3-0.6,24.7-0.6,37.1v45c-0.4,91.9-31.6,175.9-84,244.3c-3.2,4.1-6.4,8.2-9.7,12.2c-87.7,106.4-227.9,172-380.9,165.9
						c-7-0.3-14.1-0.7-21.2-1.3c-10.9-0.9-21.8-2.2-32.8-3.8c-142.9-21.7-275.6-70.5-407.5-123.5l-7.4-3
						c-17.1-6.9-34.2-13.8-51.3-20.8c-91.7-37.9-182-78.8-276.2-112.1c-4.3-1.5-8.5-3-12.8-4.5c-21.6-7.4-43.4-14.4-65.5-21
						c-124.4-35.8-243.6-36.6-355.2,37.7c-30.1,20-56.7,42.8-81.5,67.3c-0.9,0.9-1.8,1.8-2.7,2.7c-3.3,3.3-6.6,6.6-9.8,10l-2.5,2.7
						c-16.4,17.1-32,34.8-47.5,52.7c-24.6,29.7-55.8,55-78.2,86.2 M1571.6,5190.9l12.8-8.4l3.1-2c3.1-2,6.2-4.1,9.4-6.2
						c-3-4-6-8-9-12c-3.1,2-6.1,4.1-9.2,6.1l-3.3,2.2c-4.1,2.7-8.1,5.3-12.1,8c-88.9,57.8-126.2,109.8-126.2,173
						c-0.4,47.2,21.2,98.4,52.7,159.9c49.5,96.3,126.3,177,233.2,245.4c0.5,0.4,1,0.7,1.6,1l0.5-0.6c2.9-3.9,5.7-7.7,8.3-11.6
						c-0.6-0.4-1.2-0.8-1.8-1.1c-96-60.9-175.6-137.5-228.2-239.7c-31.8-61.4-51.6-109.7-51.6-153.3
						C1451.6,5295.2,1485.3,5247.3,1571.6,5190.9L1571.6,5190.9z M1658.2-11.8c-0.2,1.4-0.3,2.9-0.3,4.3V-5
						c0,32.6-7.3,64.4-8.4,96.6c-4.1,77.9-15.7,154-37.7,229.7c-33.6,123.3-96.6,236.3-150,352.6c-1.9,4.1-3.7,8.1-5.5,12.1
						c-3,6.5-5.9,13.1-8.7,19.6c-24.8,56.2-46.3,113.8-64.6,172.4c-1.7,5.6-3.4,11.1-5.1,16.7c-17.1,57.4-30.3,116-39.6,175.2
						c-0.8,5.2-1.6,10.5-2.3,15.8c-8,55.8-12,112-12,168.4c0,53.7,3.8,107.4,11.3,160.6c22.7,170.8,116.3,300.3,271.4,389.6
						c73.1,42.1,150,75.1,229.5,101.9c6.1,2,12.2,4,18.3,6c34,11,68.4,21,103.2,29.9 M1957.7,1759.5
						c-79.7-22.8-155.9-56.2-226.6-99.4c-145.6-88.9-205.6-218.8-205.6-371.7c0-8.1,0-16.5,0.8-24.5c3.5-91.3,26.8-179.7,64.1-263.8
						c3.2-7.2,6.5-14.4,9.9-21.5c5.9-12.3,12-24.5,18.5-36.6c49-92.9,110.8-177.8,175.2-261.2c64-82.8,118.9-172.4,163.7-267V1759.5
						z M1957.7,378.7c-17.2,38.5-36.1,76-56.5,112.6c-27.5,49.2-57.8,96.8-90.9,142.4c-9.2,12.8-18.7,25.5-28.4,38.1
						c-72.1,93.6-129.5,174.5-176.3,263.4c-9.6,18-18.5,36-26.7,54.1c-3.1,6.9-6.1,13.8-9,20.7c-35.5,84.3-55.3,169.3-59,253.4
						c0,8.4-0.4,16.8-0.4,25.2c0,168.6,71.3,298.1,212.5,384.5c73.2,44.6,152.1,78.9,234.7,102L1957.7,378.7z M1957.7,1926.5
						c-29.9-7.8-58.7-16.1-86.3-24.8c-6.3-2-12.5-4-18.7-6c-89.6-29.4-167.9-63.7-238.6-104.6c-153.7-88.2-242.2-215.5-264.1-378.6
						c-7.3-52.5-11-105.4-11-158.4c0-57.5,4.2-114.9,12.6-171.8c0.8-5.3,1.6-10.5,2.4-15.8c9.6-59.6,23.2-118.4,40.9-176
						c1.7-5.6,3.5-11.3,5.3-16.9c19.1-59.9,41.7-118.5,67.7-175.8c2.6-5.8,5.3-11.7,8-17.5c0.4-1,0.9-1.9,1.3-2.9
						c12.4-27.2,25.5-54,38.2-81.2c41.6-86.7,84.9-175.9,111.2-270.7c21.2-73.1,33.6-149.6,38-233c0.8-14.2,2.2-28.2,4.1-42.4
						c2.2-17.6,4.8-35.8,4.8-57.4c0-1.4,0.1-2.9,0.5-4.3 M1957.8,7372.7c-56.9,29.8-110.1,71.1-146.1,134.9
						c-19.7,33.6-31.5,63.3-38.1,93.7c-2.9,12.1-4.3,24.5-4.4,36.9c0,47.8,22.2,87.9,63.1,115.7c4.4,3,9,5.8,13.9,8.5
						c7.5,4.2,15.3,7.9,23.2,11.2c28.8,11.9,58.4,21,88.3,28.4v-15.4c-28.2-7-55.9-16-82.9-26.9c-9.1-3.7-17.9-8.1-26.4-13.2
						c-4.7-2.9-9.3-5.9-13.7-9.3c-32.8-24.7-50.3-58.6-50.3-99c0-11.3,1.2-22.6,3.7-33.6c6.6-31.8,19.7-61.1,36.6-89.3
						c27.1-48.2,64.8-83.6,109-111.4c7.8-4.9,15.8-9.6,24-14L1957.8,7372.7z M1957.8,5863.2c-48.7-23.1-96.9-47.2-144.7-72.3
						c-23.1-11.8-45.4-24.2-67-37.4l-2-1.2c-3.6-2.2-7.2-4.5-10.8-6.7c-0.6-0.4-1.2-0.8-1.8-1.1c-96-60.9-175.6-137.5-228.2-239.7
						c-31.8-61.4-51.6-109.7-51.6-153.3c0-56.3,33.6-104.2,120-160.6l12.8-8.4l3.1-2c3.1-2,6.2-4.1,9.4-6.2l3.1-2
						c50.2-33.4,99.4-68,147.7-103.7c4.1-3,8.1-6,12.1-9c63.6-47.5,125.2-97.1,185-148.9c4.4-3.8,8.7-7.6,13-11.4L1957.8,5863.2z
						 M1957.8,4879.2c-7.5,6.7-15,13.3-22.5,19.8c-58.8,51.2-120.3,100.7-185.5,149.3c-4,3-8,6-12.1,9
						c-46.8,34.6-95.5,68.7-146.5,102.8l-3.3,2.2c-3.1,2-6.1,4.1-9.2,6.1l-3.3,2.2c-4.1,2.7-8.1,5.3-12.1,8
						c-88.9,57.8-126.2,109.8-126.2,173c-0.4,47.2,21.2,98.4,52.7,159.9c49.5,96.3,126.3,177,233.2,245.4c0.5,0.4,1,0.7,1.6,1
						c3.6,2.3,7.3,4.6,11,6.9c0.6,0.4,1.1,0.7,1.7,1c21.7,13.3,44.5,26.2,68.6,38.6c53.4,27.6,103.8,52.6,152,75.4L1957.8,4879.2z
						 M7.9,6774.4c6.2,3.9,12.6,7.5,19.2,10.7c81.2,41.7,155.1,90.7,213.3,159.1c110.1,129.9,145.2,277.2,145.2,432.8
						c0,31.5-1.5,63.3-4.1,95.1c-8.1,96.6-16.4,193.1-26.7,289.7c-7.3,63.6-13.9,126.6-31.1,188.8c-13.5,49-43.5,82.7-94.7,101
						c-56.3,19.7-114.9,31.1-173.4,38.8c-16.2,2.3-33,2.9-47.8,8.2c-8.9,3.1-16.8,8.3-23.2,15.2v301.4c4.4,5.7,9.3,11,14.7,15.8
						c2.8,2.5,5.6,4.9,8.6,7.2c5.2,4.1,10.6,8.1,15.9,12.1c53.8,37.3,97.7,82,123.3,141.2c23.4,53,38.8,108.7,54.2,163.5
						c24.1,87.8,43.1,175.9,81.6,259.4c37.3,82.3,86.7,155.8,172.3,202.7c125.8,68.4,261.2,91.4,404.6,71.3
						c15-2.1,29.8-4.6,44.2-7.5c6.8-1.4,13.5-2.8,20.1-4.2c172.8-38.6,305.9-129.6,393.6-284c1.5-2.6,3-5.3,4.4-7.9
						c2.4-4.3,4.8-8.7,7.1-13.1c67.8-126,113.5-259,152.7-394.1c28.2-95.8,50.9-193.1,92.2-285.4c47.4-106.8,126-177.5,238.1-211.7
						c4.7-1.5,9.5-2.8,14.4-4.2c12.4-3.4,25.2-6.3,38.4-8.8c30.9-5.9,61.8-9.1,92.7-10.9v-14.8c-31.8,1.8-63.8,5.1-95.7,11.1
						c-13,2.5-25.7,5.3-38,8.6c-4.9,1.3-9.7,2.7-14.5,4.1c-115.9,35-199.7,109.1-248.9,220.6c-32.5,72.1-54.1,148.2-74.6,221.7
						c-5.9,21.9-12.1,43.5-18.3,65.1c-33.3,114.1-81.2,263.7-158.8,404.2l-1.8,3.2c-3.8,6.8-7.7,13.5-11.7,20.1
						c-86.2,142-213.6,228.9-388.5,264.3c-6.9,1.4-13.8,2.7-20.9,3.9c-9.4,1.6-18.9,3.1-28.5,4.5c-140.8,19.7-273.6-3.7-395-69.5
						c-71-38.8-122.2-99.5-166.1-195.7c-30-65.9-49-136.8-67.3-205.6c-4.4-17.2-8.8-34.4-13.5-51.6l-1.1-3.6
						c-15-53.8-30.7-109-53.4-161.7c-24.9-56.3-66.6-104.6-130.2-148.5c-8.2-6.2-16-12-22.9-18.4c-2.9-2.7-5.6-5.6-8.2-8.7v-289.7
						c2.5-2.2,5.2-4,8.2-5.5c10.3-5.2,22.9-6.6,36.8-7.7l12.8-1.8c70.6-9.1,126.6-22,176.7-39.5c54.5-19.4,88.4-56,103.8-110.8
						c17.6-62.9,24.5-127.3,31.5-191.7c11-98.8,19.4-197.5,27.1-289.7c2.5-33.7,4-66.6,4-96.6c0-182.2-47.2-322.7-148.9-442.7
						c-53.1-62.2-122.2-113.7-217.6-162.5c-10.6-5.4-19.5-10.2-26.2-16.1 M7.9,6438.6c4.2,0.4,9.8,2.3,18.1,5.6
						c96.9,35.8,168.6,76.1,226.5,126.6c179.2,157.3,291.9,330,343.9,528.2c12.4,45.7,18.7,95.1,20.5,155.8v34.8
						c0,21.6,0,42.8-0.4,64c-0.4,21.2-0.8,42.4-0.8,64c0,40.2,1.1,93.3,8.4,147.4c9.5,66.2,25.3,141.2,94.4,195.3
						c24.2,18.7,51.2,37.3,84.9,45c12.9,2.8,27.9,5.6,44.6,8.2c65.4,10.2,156.7,16,251.6-4.1c107.3-22.7,219.1-78.6,303.4-199.1
						l28.2-41c7.9-11.4,15.8-22.8,23.8-34.2c4.7-6.7,9.4-13.4,14.1-20.1c29.8-42.4,60.5-84.7,93.8-124.9
						c19.7-23.7,40.8-46.4,63.1-67.7c4.4-4.2,8.9-8.4,13.5-12.6c89.9-81.9,196.3-140.5,318.3-175.2V7119
						c-122.2,34-229.6,91.4-321.3,173.2c-4.5,4-8.9,8-13.3,12.1c-25.5,23.8-49.4,49.3-71.7,76.2c-30,36-57.7,73.3-84.4,111.1
						c-4.5,6.4-9,12.7-13.4,19.1c-21.1,30.2-41.7,60.6-62.8,90.8c-65.5,93.6-151.3,150.4-244.7,180.1c-17.1,5.5-34.5,10-52.1,13.7
						c-17.7,3.7-35.6,6.6-53.6,8.7c-23.1,2.6-46.3,4-69.5,4.1c-40,0.2-79.9-2.9-119.4-9.1c-15.2-2.4-30.3-5.2-45.2-8.4
						c-4.1-1-8.1-2.1-12.1-3.4c-24.7-8.2-46.1-22.9-66.6-38.7c-62.6-49-78.7-115.3-88.9-185.8c-6.6-48.3-8-96.6-8-145.2
						c0-42.8,1.5-85.3,1.5-128c0-11.7-0.4-23.1-0.8-34.8c-1.5-54-6.6-107-20.5-159.3c-56.3-212.9-179.9-387.7-349-536.3
						c-66.6-58.2-146.3-97.7-230.4-129.2c-8.1-3-16.1-5.8-23.7-6.2"/>
				</g>
				<g id="Group_35">
					<g id="Group_32">
						<path id="Path_40" class="st1" d="M1328.3,3085.2c-5,3.5-10,7-14.9,10.6c0,6.4-0.2,12.8-0.6,19.2c-0.2,3.5-0.5,7-0.8,10.6
							c-7.3,105-53.4,193.9-141.9,260.5c-107.5,81.2-234.8,112.7-367.3,132c-26.5,3.9-53.1,7.2-79.7,10c-10.4,1.1-20.9,2.2-31.3,3.1
							c-8.3,5.7-16.2,11.4-23.9,17.1c9.7-0.8,19.4-1.7,29.1-2.6c36.1-3.4,72.2-7.5,107.9-12.6c120-17.9,258.3-47.6,373.9-135
							c90.7-68,140.5-159.1,148.5-271.4c0.5-7.9,0.9-15.5,1-23.2c0.1-3.4,0.1-6.7,0.1-10.2
							C1328.4,3090.6,1328.3,3087.9,1328.3,3085.2z M7.9,3968.8c74.9-15.2,146.2-39.9,213.9-72.4c92.5-45,187.7-81.5,285.4-111.1
							c5.2-1.6,10.5-3.1,15.7-4.7c76.8-22.4,154.6-40.8,233.3-55.1c141.6-26.7,284.6-51.9,421-98.8c75-24.9,149.3-53,207.4-105.3
							c101.3-92.2,139.3-204.5,139.3-324.5c0-31.5-2.9-63.6-7.7-96.2c-4-27.9-9.6-55.5-16.6-82.7c-1.2-4.8-2.5-9.6-3.8-14.3
							c-53.4-191.4-177.1-345.5-343.7-473.7c-3.9-3-7.9-6-11.9-9l-4.8-3.6c-103.2-76.8-215.8-140.5-327.8-204.5
							c-163.9-94.4-321.9-197.5-499-271.1c-96.1-40.2-195.5-73.8-300.9-87.6 M7.9,2131.6c9.1,4.3,19.6,6.7,30.2,8.9
							c121.4,25.6,231.9,75.4,338.7,132.8c155.5,84.5,308,171.6,464.2,253.9c65.8,34.5,131.2,70.5,191.5,112.9
							c4.2,2.9,8.3,5.9,12.4,8.9c39.9,29,77.4,61.1,111.1,97.8c92.6,100.6,157.3,212.9,157.3,346.8c0,0.8,0,1.6,0,2.4
							c0,6.4-0.2,12.8-0.6,19.2c-0.2,3.5-0.5,7-0.8,10.6c-7.3,105-53.4,193.9-141.9,260.5c-107.5,81.2-234.8,112.7-367.3,132
							c-26.5,3.9-53.1,7.2-79.7,10c-10.4,1.1-20.9,2.2-31.3,3.1c-72.8,6.9-145.9,10.9-219.4,15.8c-149.6,9.9-297.4,31.8-445.2,53
							c-6.7,1.1-13.1,3.1-19.2,5.9 M7.9,3623.2c6.4-4.4,13.7-7.2,21.4-8.2l24.1-3.7c137.2-19.8,279.1-40.2,419.9-49.4l48.3-3.3
							c48.1-3,97-6.2,146.1-10.3c9.7-0.8,19.4-1.7,29.1-2.6c36.1-3.4,72.2-7.5,107.9-12.6c120-17.9,258.3-47.6,373.9-135
							c90.7-68,140.5-159.1,148.5-271.4c0.5-7.9,0.9-15.5,1-23.2c0.1-3.4,0.1-6.7,0.1-10.2c0-2.8,0-5.5-0.1-8.2
							c-2.3-119.2-55.4-233.3-161.2-348.8c-33.9-36.9-71.5-69.2-111.1-98.2c-4.1-3-8.2-5.9-12.3-8.9
							c-62.8-44.5-130.1-81.2-195.6-115.3c-96.1-50.7-192.7-104.1-286-156.1c-59.3-32.5-118.5-65.5-177.8-97.7
							c-131.3-70.6-237.1-111.9-343.2-134.3c-15.1-3-25.7-6.1-33.1-11.5 M7.9,1969.2c89.3,11.9,181.5,38.8,295.1,86.3
							c135.3,56,261.9,131,384.1,203.8c37.3,22.3,75.3,44.6,113,66.6l13.5,7.7c105.4,60,215.1,122.5,313.2,195.7l4.4,3.3
							c4,3,8,6,11.9,9c178,137.2,289.7,290.7,338.5,466.5c1.4,4.7,2.6,9.5,3.8,14.3c6.8,26.5,12.1,53.4,16.1,80.4
							c4.9,31.1,7.3,62.5,7.3,94c0,128.8-43.9,231.2-133.9,313.5c-57.1,51.2-131.3,78.7-202.7,102.1
							c-125.5,43.2-259,68.4-388.5,92.5l-30,5.9c-76.8,13.9-152.9,31.7-227.9,53.3c-5.4,1.6-10.8,3.2-16.2,4.8
							c-103.7,30.9-201.2,68.7-294.3,113.9c-65.9,32-135.5,55.7-207.3,70.8"/>
					</g>
					<g id="Group_33">
						<path id="Path_41" class="st1" d="M607.7,537.8c-11,19.9-23.1,39.2-36.2,57.8C512.9,679.3,445.8,751.9,370,813.3
							c-3.8,3.1-7.7,6.3-11.6,9.3c3.6,3.6,7.3,7.1,11.2,10.4c3.9-3.1,7.8-6.2,11.7-9.4c77.4-63.1,144.5-136.7,202.6-219.2
							c12.3-17.6,23.5-35.5,33.7-53.6C614.2,546.6,610.9,542.3,607.7,537.8z M607.7,537.8c-11,19.9-23.1,39.2-36.2,57.8
							C512.9,679.3,445.8,751.9,370,813.3c-3.8,3.1-7.7,6.3-11.6,9.3c3.6,3.6,7.3,7.1,11.2,10.4c3.9-3.1,7.8-6.2,11.7-9.4
							c77.4-63.1,144.5-136.7,202.6-219.2c12.3-17.6,23.5-35.5,33.7-53.6C614.2,546.6,610.9,542.3,607.7,537.8z M7.9,1013
							c48.5-13.2,96.4-26.6,142.2-47.1c78.4-34.9,152.1-79.6,219.5-132.8c3.9-3.1,7.8-6.2,11.7-9.4
							c77.4-63.1,144.5-136.7,202.6-219.2c12.3-17.6,23.5-35.5,33.7-53.6c2.7-4.7,5.2-9.4,7.7-14.1c42.3-79.9,63.9-164.4,63.9-253.1
							c0-32.5-2.7-64.9-8.1-96.9c-11.6-66.3-22.8-132.5-33.8-198.5 M108.1-11.8C105-2.6,104,7,104,16.6c0,17.2,3.3,34.8,4.4,51.6
							c2.9,56,7.7,111.9,7.7,167.6c0,22.3-0.7,44.6-2.5,66.9c-7.3,81.9-35.5,155.5-98,215.1c-2.7,2.5-5.2,5.1-7.5,7.8 M7.9,550.3
							c5-7.9,11-15.1,17.8-21.5c61.1-58.2,94.4-131.7,102.8-225c1.8-21.2,2.6-43.5,2.6-68c0-43.5-2.9-88.2-5.8-131L123,67.5
							c0-7.3-1.1-14.6-2.2-22.3c-0.7-9.5-2.2-19-2.2-28.5c0-11.4,1.7-20.5,5.5-28.4 M632-11.8l5.3,32.5l28.9,168.6
							c5.5,31.2,8.3,62.7,8.4,94.3c0,82.8-19.9,163.2-59.2,239.7c-2.5,4.8-5.1,9.7-7.8,14.6c-11,19.9-23.1,39.2-36.2,57.8
							C512.9,679.3,445.8,751.9,370,813.3c-3.8,3.1-7.7,6.3-11.6,9.3c-65.9,51.9-138,95.5-214.6,129.7c-43.3,19.4-88.5,32.2-136,45"
							/>
					</g>
				</g>
				<g id="Group_36">
					<path id="Path_43" class="st1" d="M1957.7,6167.3c-41.5-5.9-83.1-11.6-124.8-17c-37.3-4.8-74.7-9.4-112.1-13.6
						c-9.5-1.1-19-2.1-28.5-3.2c-29.7-3.2-59.4-6.3-89.2-9.1c-36.7-3.4-73.1-9.4-109-17.9c-49.7-11.8-98-28.7-144.2-50.6
						c-10.5-5-20.8-10.2-31-15.6l-0.4,0.2c-0.8-0.4-1.5-0.8-2.2-1.2c-4.9-2.6-9.8-5.2-14.6-7.9c-5.6,2.4-11.3,4.7-16.9,7
						c4.7,2.8,9.4,5.5,14.2,8.1c0.7,0.4,1.4,0.8,2.1,1.2c21.4,11.9,43.4,22.8,65.9,32.5c31.8,13.7,64.6,25.2,98,34.4l0,0
						c44.7,12.2,90.5,20.5,136.6,24.8c21.6,2,43.2,4.2,64.9,6.4c9.5,1,19,2,28.5,3c44.5,4.9,88.9,10.2,133,15.8
						c43.7,5.6,87,11.5,129.7,17.6c9.4,1.4,18.8,2.7,28.2,4.1c-9.4-1.7-18.8-3.3-28.2-4.8L1957.7,6167.3z M7.8,5423.5L7.8,5423.5
						h0.1L104,5458c138.3,50.1,281.7,102.1,431.3,134.6c29.2,6.3,58.7,12.7,88.2,19.5c2.4,0.6,4.9,1.1,7.3,1.7
						c12.9,3,25.8,6.2,38.7,9.5l4.6,1.2c44.5,11.5,88.7,24.7,131.6,41.2c63.6,23.4,120.7,58.9,170.4,104.6
						c35.5,32.5,69.9,65.8,104.3,99.5c20.5,19.8,40.9,39.9,61.4,59.3c42.6,41.3,89.9,77.5,140.8,108c0.7,0.4,1.5,0.9,2.2,1.3
						c4.7,2.8,9.4,5.5,14.2,8.1c0.7,0.4,1.4,0.8,2.1,1.2c21.4,11.9,43.4,22.8,65.9,32.5c31.8,13.7,64.6,25.2,98,34.4l0,0
						c44.7,12.2,90.5,20.5,136.6,24.8c21.6,2,43.2,4.2,64.9,6.4c9.5,1,19,2,28.5,3c44.5,4.9,88.9,10.2,133,15.8
						c43.7,5.6,87,11.5,129.7,17.6c9.4,1.4,18.8,2.7,28.2,4.1c-9.4-1.7-18.8-3.3-28.2-4.8v-14.4c-41.5-5.9-83.1-11.6-124.8-17
						c-37.3-4.8-74.7-9.4-112.1-13.6c-9.5-1.1-19-2.1-28.5-3.2c-29.7-3.2-59.4-6.3-89.2-9.1c-36.7-3.4-73.1-9.4-109-17.9
						c-49.7-11.8-98-28.7-144.2-50.6c-10.5-5-20.8-10.2-31-15.6l-2.2-1.2c-4.8-2.6-9.6-5.3-14.4-8l-2.3-1.3
						c-53.6-30.9-103.2-68.3-147.6-111.4c-55.2-52.7-109.7-107.2-166.1-159.1c-50.5-46.8-109-83-175.6-107.9
						c-30.2-11.6-60.8-21.5-91.8-30.4l-1.8-0.5c-13.8-3.9-27.6-7.6-41.6-11.2l-5-1.2c-44.2-11.2-88.9-20.7-133.4-30.2
						c-180.8-39.5-351.1-107.2-523.4-168.3l-5.8-2 M7.9,6058.5c5.9-1.9,13.3-2.4,22.9-2.9h7.3c21.2-0.7,42.1-0.7,63,0
						c41,0.8,83,1.5,125.1-6.9l8.8-1.8c28.5-5.5,63.3-12.4,76.8-49.4c2.2-7.7,3.7-15,3.7-22.3c0-30.4-21.2-52.7-41-71.7
						c-50.5-47.7-103.1-85.2-159.3-114.1l-3.6-1.8c-3.9-2-7.9-4-11.9-5.9c-1.4-0.6-2.7-1.3-4.1-1.9c-12.4-5.9-25-11.3-37.8-16.4
						l-12.1-4.8c-14.7-5-28.1-10-37.9-18.5 M7.9,6440.1c66.1,19.3,126,50.8,182.4,88.2c116.3,76.4,204.1,179.3,277.2,291.9
						c73.9,112.7,127.7,233.4,141.2,366.9c4.4,43.5,5.5,86.7,5.5,130.6c0,40.2-1.1,80.5-1.1,120.7c0,13.2,0,26.3,0.7,39.5
						c0.7,57.8,6.6,114.5,24.2,169c28.9,88.5,90.7,147.1,190.2,165.7c10.5,2,21,3.7,31.5,5.1c56.7,7.6,113.1,6.9,171.1,2.6
						c20.5-1.5,41-4,61.2-7.7c120.1-21.6,216-80.4,291.1-175.2c24.9-31.5,48.6-63.8,71.9-96.4c4.8-6.7,9.5-13.3,14.3-20
						c20-28.1,39.9-56.3,60.2-84.1c28.9-39.9,61.3-77.2,96.8-111.4c4.5-4.3,9-8.5,13.5-12.7c89.3-81.7,195.3-140.3,317.9-175.7
						v-15.5c-122.9,35.1-230.1,93.3-320.7,173.9c-4.5,4-8.9,8-13.3,12.1c-39.2,36.7-74.8,77-106.3,120.5l-49.8,69.3l-0.7,0.9
						l-12.9,18.2c-26.6,37.3-53.9,75.1-82.6,111.3c-62.7,79.5-138.9,131.7-231.3,158.1c-17,4.9-34.2,8.8-51.6,11.8
						c-15.6,2.7-31.7,4.8-48.1,6.3c-3.4,0.3-6.8,0.6-10.3,0.8c-20.9,1.7-40.6,2.8-59.3,3.3c-40.2,1-75.8-0.9-109.8-5.6
						c-10.2-1.4-20.1-3-30-5c-11.3-2.1-22.4-4.8-33.4-8.2c-72.2-22.5-120.8-71.6-145.1-146.9c-15.4-46.1-22.7-98.8-24.2-164.6v-99.9
						c0.8-20.1,0.8-40.6,0.8-60.4c0-36.2-0.8-83.4-5.9-132.1c-12.4-123.3-59.3-245.4-143.4-373.8
						c-86.7-132.8-176.3-227.2-281.6-295.9c-65.2-43.5-127.7-73.5-190.5-91.4 M7.9,5758.6c13.5,8.2,29.7,12.9,44.9,18.8
						c9.5,3.7,18.8,7.7,27.9,11.8c1.5,0.7,3,1.4,4.5,2c3.9,1.8,7.8,3.6,11.6,5.5l4.1,2c60.4,30.2,114.2,69.5,163.3,115.7
						c17.9,16.8,36.2,36.2,36.2,60.7c-0.1,6-1.2,11.9-3.3,17.6c-11.3,32.2-44.6,35.1-73.9,41.3c-61.8,12.4-123.6,4.1-185.8,6.6
						c-10,0.6-20.2,0.3-29.4,2.3"/>
				</g>
				
					<image style="overflow:visible;enable-background:new    ;" width="844" height="845" id="Rectangle_46" xlink:href="1D8163C1.png"  transform="matrix(1.0155 0 0 1.0155 438.0597 8070.625)">
				</image>
				
					<image style="overflow:visible;enable-background:new    ;" width="693" height="453" id="Rectangle_47" xlink:href="1D8163C2.png"  transform="matrix(1.0155 0 0 1.0155 322.2911 4801.6846)">
				</image>
				
					<image style="overflow:visible;enable-background:new    ;" width="189" height="750" id="Rectangle_51" xlink:href="1D8163C3.png"  transform="matrix(1.0155 0 0 1.0155 -15.8752 7051.0488)">
				</image>
				<g id="Group_41">
					<path id="Path_49" class="st1" d="M1737,9312.1c-9.1-28.9-19.7-57.4-30-84.9c-11.4-30.4-22.8-61.1-32.2-92.2
						c-1.7-5.5-3.3-11.1-4.8-16.6c-5.5-19.5-9.9-39.4-13-59.4c-8.9-59.3-13.4-119.2-13.5-179.2c0-34.5,1.6-68.2,4.8-101.1
						c0.7-7,1.4-13.9,2.2-20.8c13.1-110.9,44.7-213.8,95.5-312c43.7-85.1,118.7-147.2,212-180.2v-15.3
						c-96.6,32.9-178,96.5-225.5,189c-55.4,106.9-86.2,217.6-98,330.7c-0.7,6.8-1.3,13.7-1.9,20.5c-2.5,29.6-3.7,59.3-3.7,89.2
						c0.1,60.7,4.5,121.4,13.2,181.5c3.8,23.6,9.1,47,16,70c1.6,5.5,3.3,11,5.1,16.5c17.5,55.3,40.5,109.1,58.4,164.5
						c1.6,5,3.2,10,4.7,15h231.7L1737,9312.1z"/>
				</g>
				
					<image style="overflow:visible;enable-background:new    ;" width="485" height="359" id="Rectangle_55" xlink:href="1D8163C4.png"  transform="matrix(1.0155 0 0 1.0155 846.2965 3938.4968)">
				</image>
				<g id="Group_43">
					<path id="Path_51" class="st1" d="M1348.8,7196.5c-44.2,35.1-87.9,70.1-132,105.2l-17.9,13.9c-3.6,2.9-7.3,5.6-11.2,8.3
						c-4,2.8-8.2,5.5-12.5,8.1c2.7,4.3,5.4,8.6,8,12.9c4.2-2.6,8.4-5.3,12.5-8.1c4.2-2.9,8.3-5.9,12.3-9.1
						c49.3-39.3,98.7-78.5,148.3-117.8C1353.8,7205.3,1351.3,7200.9,1348.8,7196.5z M1620.3,6440.9c-91.9-0.3-182.2-10.6-272.6-25.2
						c-18.1-2.8-36-6.1-53.8-9.7c-5.8-1.2-11.5-2.3-17.3-3.6c-4,4.2-7.9,8.5-11.8,12.8c5.6,1.2,11.3,2.4,16.9,3.6
						c21.1,4.4,42.4,8.4,63.8,11.8c105.3,16.8,192.8,24.9,274.7,25.2h81.2c84.3-0.4,170.3-0.6,256.2,1.3v-15
						C1845.2,6439.8,1732.7,6440.8,1620.3,6440.9L1620.3,6440.9z M1388,7165.6c-9.1,7.1-18.2,14.3-27.2,21.5l-12,9.5
						c2.5,4.4,5,8.9,7.5,13.3l12-9.5l29.2-23.1c48.3-38,98.4-73.5,150.3-106.4c-2-4.6-4-9.2-6-13.9
						C1488.6,7090.5,1437.3,7126.7,1388,7165.6L1388,7165.6z M1620.3,6440.8c-91.9-0.3-182.2-10.6-272.6-25.2
						c-18.1-2.8-36-6.1-53.8-9.7c-5.8-1.2-11.5-2.3-17.3-3.6c-86.7-18.4-171.5-43.6-258.1-64c-75.4-17.9-148.5-45-229-41.7
						c-58.5,2.5-92.9,34.8-95.1,90.4c-0.6,6.9-0.9,13.9-0.8,20.9h15.4v-20.1c2.6-60,45.4-74.6,81.2-76.1
						c59.3-2.2,113.4,12.4,171.2,27.8c17.9,4.4,35.8,9.5,53.4,13.6c37.3,8.4,73.9,17.9,110.5,27.4c45.6,12.2,92.1,24.4,139.5,34.7
						c5.6,1.2,11.3,2.4,16.9,3.6c21.1,4.4,42.4,8.4,63.8,11.8c105.3,16.8,192.8,24.9,274.7,25.2h81.2c84.3-0.4,170.3-0.6,256.2,1.3
						v-15C1845.2,6439.8,1732.7,6440.8,1620.3,6440.8z M1957.7,6885.7c-38.5,7.4-76.6,17.1-114,28.9
						c-97.8,31.3-193.5,75.7-289.2,134.4c-4.3,2.6-8.6,5.3-12.8,8c-53.1,33.5-104.4,69.7-153.7,108.5c-9.1,7.1-18.2,14.3-27.2,21.5
						l-12,9.5c-44.2,35.1-87.9,70.1-132,105.2l-17.9,13.9c-3.6,2.9-7.3,5.6-11.2,8.3c-4,2.8-8.2,5.5-12.5,8.1
						c-14,8.5-29.8,16.2-48.4,24.2c-71,29.6-103.6,18.7-146.7-50.1c-15-24.5-22.3-55.6-27.4-83c-9-40.5-19.5-80.7-30.9-120.2
						c-1.8-6.3-3.6-12.5-5.5-18.7c-35.6-119.8-79.6-233.8-120.2-334c-49.8-123.3-87.1-226.8-87.1-342h-15.4
						c0,122.5,43.2,235.2,88.6,347.5c43,106.4,83.7,213.4,116.7,322.7c1.7,5.8,3.5,11.6,5.2,17.4c12.7,43.2,24.1,86.7,34,130.7
						c5.8,30,13.1,61.5,29.2,87.8c48.7,77.2,91.1,87.1,165.3,56c17.5-7.1,34.4-15.6,50.5-25.2c4.2-2.6,8.4-5.3,12.5-8.1
						c4.2-2.9,8.3-5.9,12.3-9.1c49.3-39.3,98.7-78.5,148.3-117.8l12-9.5l29.2-23.1c48.3-38,98.4-73.5,150.3-106.4
						c4.3-2.7,8.5-5.4,12.8-8c89.3-55.1,184.3-101.1,287.6-134c36-11.3,72.5-20.5,109.5-27.7 M1345.5,6430.7
						c105.3,16.8,192.8,24.9,274.7,25.2h81.2c84.3-0.4,170.3-0.6,256.2,1.3v-15c-112.5-2.4-225-1.3-337.4-1.3
						c-91.9-0.3-182.2-10.6-272.6-25.2c-18.1-2.8-36-6.1-53.8-9.7c-5.8-1.2-11.5-2.3-17.3-3.6c-4,4.2-7.9,8.5-11.8,12.8
						c5.6,1.2,11.3,2.4,16.9,3.6C1302.9,6423.2,1324.1,6427.2,1345.5,6430.7z"/>
				</g>
				<g id="Group_45">
					<path id="Path_53" class="st1" d="M1957.7,2980.6l-3.1-4.7c-85.6-126.9-174.1-258.3-259.3-391.8l-9.5-14.6
						c-39.5-61.8-80.1-125.8-99.5-196.8c-3.6-15.4-5.8-29.6-5.8-42.1c0-53,36.6-80.8,109-83c37.5-1.1,74.6,1.2,111,5.7
						c5.6,0.7,11.2,1.4,16.7,2.2c39,5.5,77.2,13.1,113.7,21c9,2,17.9,4.1,26.9,6.2v-15.5c-7.7-1.8-15.5-3.6-23.2-5.3
						c-35.6-7.7-71.4-14.8-107.4-20.1c-5.6-0.8-11.2-1.6-16.8-2.3c-40.2-5.3-80.7-8.1-121.6-6.8c-81.2,2.6-123.7,36.6-123.7,98l0,0
						c0,13.9,2.5,29.3,7,46.1c21.6,78.7,66.9,147,110.5,215.5c84.5,132,172.3,262.3,259.7,392.1c5.2,7.8,10.4,15.5,15.5,23.3
						c12.9,19.2,26,38.3,39.4,57.1L1957.7,2980.6z"/>
				</g>
				
					<image style="overflow:visible;enable-background:new    ;" width="281" height="330" id="Rectangle_56" xlink:href="1D8163C5.png"  transform="matrix(1.0155 0 0 1.0155 598.511 1313.3922)">
				</image>
			</g>
		</g>
	</g>
</g>
<path class="st5" d="M-848.1-3621.5V11820h3616.2V-3621.5H-848.1z M1920,8198.5H0V0h1920V8198.5z"/>
</svg>
